<svg viewBox="0 0 2000 1000" xmlns="http://www.w3.org/2000/svg"><path d="M0 0h2000v1000H0z"/><rect x="236" y="904" width="9" height="10" fill="#FF2828" rx="0" transform="matrix(.26735 1.0023 -1.03053 -.12307 1348.021 813.615)"/><rect x="1943" y="911" width="7" height="13" fill="#FF2828" rx="0" transform="matrix(.83076 .61526 -.52287 .81648 645.696 -615.48)"/><rect x="1621" y="538" width="8" height="14" fill="#FF2828" rx="0" transform="matrix(.44242 1.00306 -.96601 .07014 1624.346 -952.403)"/><rect x="1683" y="252" width="5" height="11" fill="#FF4409" rx="0" transform="matrix(.8004 .99517 -.77534 .28536 739.417 -1041.713)"/><rect x="227" y="524" width="5" height="5" fill="#FF2828" rx="0" transform="matrix(.86557 .68604 -.46192 .7892 232.33 23.71)"/><rect x="913" y="418" width="5" height="9" fill="#FF2828" rx="0" transform="matrix(.87017 .84805 -.56988 .59381 441.627 -359.466)"/><rect x="1325" y="705" width="8" height="19" fill="#FDA829" rx="0" transform="matrix(.91266 .27564 -.44513 .96126 308.138 -338.644)"/><rect x="1522" y="537" width="5" height="12" fill="#FF2828" rx="0" transform="matrix(-.24351 .8768 -.97625 -.59141 2444.482 52.373)"/><rect x="1504" y="299" width="5" height="13" fill="#FF2828" rx="0" transform="matrix(.98953 .05262 -.12137 1.00413 57.996 -238.88)"/><rect x="153" y="918" width="7" height="13" fill="#FDA829" rx="0" transform="matrix(-.24325 .92742 -.975 -.39367 1128.92 1162.519)"/><rect x="1817" y="427" width="7" height="11" fill="#FF2828" rx="0" transform="matrix(-.3103 .82115 -1.00053 -.57498 2957.706 -686.428)"/><rect x="351" y="635" width="7" height="15" fill="#FDA829" rx="0" transform="matrix(.9006 .32736 -.43921 .95073 306.87 -121.651)"/><rect x="1365" y="538" width="6" height="11" fill="#FF4409" rx="0" transform="matrix(.97148 .53284 -.32205 .85272 351.68 -792.658)"/><rect x="548" y="799" width="8" height="14" fill="#FF4409" rx="0" transform="matrix(-.5617 .74724 -.83251 -.67282 1563.23 993.832)"/><rect x="699" y="422" width="9" height="26" fill="#FF2828" rx="0" transform="matrix(-.86144 .37742 -.51743 -.93415 1552.812 662.218)"/><rect x="1324" y="801" width="8" height="9" fill="#FF4409" rx="0" transform="matrix(.56767 .99324 -.88615 .21112 1490.012 -449.413)"/><rect x="1841" y="685" width="5" height="12" fill="#FDA829" rx="0" transform="matrix(.98477 .56131 -.26513 .86435 291.74 -481.406)"/><rect x="1002" y="61" width="9" height="26" fill="#FF4409" rx="0" transform="matrix(.43858 .88308 -.8992 .46954 630.629 -867.137)"/><rect x="659" y="105" width="7" height="18" fill="#FF2828" rx="0" transform="matrix(-.9962 0 -.41332 -1.00382 1425.47 286.397)"/><rect x="1901" y="595" width="8" height="11" fill="#FF4409" rx="0" transform="matrix(-.90165 .16358 -.42034 -1.03282 3854.41 1491.5)"/><rect x="76" y="99" width="5" height="7" fill="#FF2828" rx="0" transform="matrix(.27754 1.00861 -.96718 .08824 186.862 1.846)"/><rect x="419" y="717" width="5" height="8" fill="#FF4409" rx="0" transform="matrix(.4412 .8322 -.90404 .56133 851.494 -71.369)"/><rect x="953" y="344" width="5" height="6" fill="#F6F5FC" rx="0" transform="matrix(.84645 .56056 -.52902 .83106 315.836 -410.177)"/><rect x="38" y="100" width="8" height="17" fill="#FF4409" rx="0" transform="matrix(.32114 1.0032 -1.00802 -.03503 167.939 73.84)"/><rect x="939" y="411" width="8" height="14" fill="#FF4409" rx="0" transform="matrix(-.9848 .20804 -.17365 -.97874 1944.259 598.004)"/><rect x="1737" y="427" width="5" height="11" fill="#F6F5FC" rx="0" transform="matrix(-.91708 .22509 -.47038 -.97496 3644.804 401.886)"/><rect x="897" y="140" width="5" height="13" fill="#FF4409" rx="0" transform="matrix(.65564 .9176 -.78406 .42789 454.992 -599.104)"/><rect x="1392" y="465" width="6" height="14" fill="#FDA829" rx="0" transform="matrix(1.0432 .7328 -.35722 .70766 335.563 -613.116)"/><rect x="743" y="100" width="8" height="17" fill="#F6F5FC" rx="0" transform="matrix(.12906 .93382 -1.1395 -.49652 886.033 -277.98)"/><rect x="1331" y="13" width="7" height="9" fill="#FF4409" rx="0" transform="matrix(-.07046 1.00244 -.99387 -.05254 1431.813 -1202.589)"/><rect x="524" y="901" width="6" height="8" fill="#F6F5FC" rx="0" transform="matrix(.9179 .75374 -.47076 .70288 578.242 3.07)"/><rect x="617" y="817" width="5" height="14" fill="#FDA829" rx="0" transform="matrix(-.40082 .89658 -.88394 -.51764 1439.376 861.1)"/><rect x="331" y="281" width="9" height="17" fill="#F6F5FC" rx="0" transform="matrix(-.48032 .65967 -.96336 -.75887 874.83 323.134)"/><rect x="1793" y="914" width="5" height="14" fill="#F6F5FC" rx="0" transform="matrix(-.61646 .8336 -.7838 -.56227 3428.562 130.832)"/><rect x="1472" y="348" width="5" height="6" fill="#FF2828" rx="0" transform="matrix(.63954 .78038 -.74478 .65482 680.483 -742.901)"/><rect x="1860" y="154" width="9" height="10" fill="#FDA829" rx="0" transform="matrix(.87938 .68712 -.51233 .73685 282.273 -1468.226)"/><rect x="525" y="440" width="6" height="8" fill="#FF2828" rx="0" transform="matrix(-.86603 .46976 -.5 -.88349 1207.261 606.674)"/><rect x="1924" y="365" width="9" height="14" fill="#FDA829" rx="0" transform="matrix(.9232 .80648 -.54427 .60773 522.87 -1138.347)"/><rect x="1743" y="164" width="8" height="18" fill="#F6F5FC" rx="0" transform="matrix(.03432 .99023 -1.01592 -.1746 1900.276 -1343.112)"/><rect x="1733" y="667" width="5" height="14" fill="#FDA829" rx="0" transform="matrix(.97919 .7229 -.40412 .7229 511.213 -698.945)"/><rect x="213" y="486" width="6" height="9" fill="#FF2828" rx="0" transform="matrix(1.07085 .4574 -.0846 .8977 174.45 -22.098)"/><rect x="239" y="988" width="9" height="19" fill="#F6F5FC" rx="0" transform="matrix(.97068 .15885 -.16672 1.00293 324.632 -84.533)"/><rect x="490" y="211" width="7" height="7" fill="#FF4409" rx="0" transform="matrix(-.93212 .53 -.39508 -.84818 998.907 143.493)"/><rect x="462" y="142" width="8" height="21" fill="#FDA829" rx="0" transform="matrix(-1.03444 .37928 -.07627 -.93874 947.217 45.108)"/><rect x="863" y="616" width="7" height="18" fill="#FF4409" rx="0" transform="matrix(-.54862 .74724 -.84428 -.67282 1907.084 489.101)"/><rect x="907" y="465" width="7" height="12" fill="#F6F5FC" rx="0" transform="matrix(-.52992 .89441 -.84805 -.45572 1792.422 -208.372)"/><rect x="1651" y="824" width="9" height="22" fill="#F6F5FC" rx="0" transform="matrix(-.71606 .4098 -.83196 -.9204 3893.136 1128.4)"/><rect x="1809" y="226" width="6" height="14" fill="#FF2828" rx="0" transform="matrix(-.668 .4884 -.7912 -.91853 3285.88 81.636)"/><rect x="1134" y="891" width="6" height="8" fill="#FF2828" rx="0" transform="matrix(-.7869 .60264 -.61512 -.79973 2640.648 865.97)"/><rect x="491" y="51" width="6" height="12" fill="#FF2828" rx="0" transform="matrix(.04897 .96886 -1.04805 -.3148 556.532 -307.648)"/><rect x="1229" y="234" width="9" height="17" fill="#F6F5FC" rx="0" transform="matrix(.98833 .17535 -.09763 .99449 52.768 -388.32)"/><rect x="402" y="295" width="5" height="13" fill="#FF2828" rx="0" transform="matrix(.97303 .20906 -.20564 .98354 100.132 -122.114)"/><rect x="713" y="226" width="9" height="11" fill="#FF4409" rx="0" transform="matrix(-.60645 .65482 -.8044 -.78038 1351.803 81.794)"/><rect x="1653" y="559" width="9" height="20" fill="#F6F5FC" rx="0" transform="matrix(.02495 .93395 -1.08182 -.41582 2461.413 -390.114)"/><rect x="648" y="940" width="6" height="6" fill="#FF4409" rx="0" transform="matrix(.28569 1.00107 -1.0139 -.05246 1686.004 386.3)"/><rect x="1824" y="687" width="9" height="15" fill="#FF4409" rx="0" transform="matrix(.91782 .63172 -.44955 .78011 582.57 -842.424)"/><rect x="1830" y="353" width="6" height="17" fill="#FDA829" rx="0" transform="matrix(1.02496 .2758 -.0513 .96185 52.505 -555.769)"/><rect x="12" y="370" width="9" height="19" fill="#F6F5FC" rx="0" transform="matrix(-.40561 .88781 -.9107 -.47206 355.49 545.731)"/><rect x="1499" y="301" width="6" height="14" fill="#F6F5FC" rx="0" transform="matrix(.99205 .0698 -.13981 .99817 17.111 -51.824)"/><rect x="1627" y="217" width="6" height="17" fill="#FDA829" rx="0" transform="matrix(-1.02944 -.23653 -.23114 -1.02451 3466.229 1371.687)"/><rect x="73" y="543" width="5" height="13" fill="#FF2828" rx="0" transform="matrix(-.8409 .82936 -.61694 -.58073 383.214 794.034)"/><rect x="1311" y="343" width="6" height="12" fill="#FDA829" rx="0" transform="matrix(1.03689 .13994 .2319 .99572 1.115 -44.281)"/><rect x="1885" y="87" width="6" height="10" fill="#F6F5FC" rx="0" transform="matrix(.26363 .99405 -.96893 .1397 1463.858 -1962.8)"/><rect x="1148" y="745" width="7" height="17" fill="#FF2828" rx="0" transform="matrix(.03447 .9922 -1.01394 -.17495 1954.1 -115.81)"/><rect x="1167" y="26" width="7" height="10" fill="#FDA829" rx="0" transform="matrix(1.05505 .46093 -.00636 .94505 -6.43 -157.497)"/><rect x="597" y="707" width="8" height="19" fill="#F6F5FC" rx="0" transform="matrix(.86513 .73147 -.56038 .6821 671.743 -222.327)"/><rect x="1169" y="385" width="8" height="22" fill="#F6F5FC" rx="0" transform="matrix(-.358 .92846 -.93242 -.37512 1946.186 -483.057)"/><rect x="1259" y="249" width="6" height="9" fill="#FDA829" rx="0" transform="matrix(.71706 .92402 -.77785 .39222 651.762 -901.633)"/><rect x="1327" y="39" width="7" height="20" fill="#F6F5FC" rx="0" transform="matrix(.83867 .5886 -.54464 .81013 241.336 -704.09)"/><rect x="1198" y="701" width="6" height="15" fill="#FDA829" rx="0" transform="matrix(.63343 .84857 -.78265 .53024 1060.408 -644.363)"/><rect x="1020" y="794" width="9" height="13" fill="#FF4409" rx="0" transform="matrix(.16302 .9204 -1.0139 .4098 1574.29 -596.287)"/><rect x="1207" y="627" width="8" height="14" fill="#FF4409" rx="0" transform="matrix(-.50439 .75655 -.88333 -.65766 2529.034 50.09)"/><rect x="1529" y="188" width="5" height="13" fill="#F6F5FC" rx="0" transform="matrix(.25218 .9855 -1.06832 -.20947 1484.8 -1085.996)"/><rect x="998" y="410" width="7" height="9" fill="#FF2828" rx="0" transform="matrix(.15746 .99817 -.99082 .0698 1301.1 -649.074)"/><rect x="1013" y="812" width="9" height="17" fill="#FF4409" rx="0" transform="matrix(1.09222 .5189 -.10937 .8636 321.447 -291.141)"/><rect x="990" y="129" width="8" height="11" fill="#FF4409" rx="0" transform="matrix(.74476 .61576 -.67077 .78813 330.638 -566.214)"/><rect x="847" y="945" width="8" height="8" fill="#FF2828" rx="0" transform="matrix(-.99227 .08737 -.1041 -.99863 1741.355 1881.854)"/><rect x="730" y="937" width="9" height="14" fill="#FDA829" rx="0" transform="matrix(.77112 .75887 -.64743 .65967 832.799 -158.92)"/><rect x="1774" y="203" width="6" height="14" fill="#FDA829" rx="0" transform="matrix(.97534 .07002 -.333 1.00137 104.134 -280.187)"/><rect x="1942" y="835" width="8" height="16" fill="#FF2828" rx="0" transform="matrix(-.35682 .84805 -.92933 -.59381 3399.984 214.708)"/><rect x="848" y="827" width="9" height="11" fill="#F6F5FC" rx="0" transform="matrix(.50767 1.03275 -.93278 .07222 1383.324 120.383)"/><rect x="1185" y="301" width="8" height="22" fill="#F6F5FC" rx="0" transform="matrix(.64333 .61905 -.79195 .79235 648.204 -796.236)"/><rect x="1609" y="44" width="8" height="19" fill="#FDA829" rx="0" transform="matrix(.85969 .43864 -.51716 .89934 240.507 -645.811)"/><rect x="418" y="811" width="5" height="12" fill="#F6F5FC" rx="0" transform="matrix(-.98551 -.01772 -.03177 -1.01527 751.449 1728.075)"/><rect x="1333" y="989" width="9" height="18" fill="#FF4409" rx="0" transform="matrix(-.14067 .99572 -1.02407 .13994 2396.482 -614.016)"/><rect x="510" y="827" width="6" height="15" fill="#FF4409" rx="0" transform="matrix(.88828 .63716 -.47252 .78683 483.614 -67.727)"/><rect x="390" y="535" width="6" height="17" fill="#FF4409" rx="0" transform="matrix(-.15814 .95762 -.99591 -.29277 1045.779 346.875)"/><rect x="1909" y="859" width="5" height="9" fill="#FF4409" rx="0" transform="matrix(.78854 .43944 -.65887 .90099 844.45 -888.162)"/><rect x="1119" y="187" width="9" height="15" fill="#FF2828" rx="0" transform="matrix(-1.04732 -.26925 -.19463 -1.00485 2429.125 1014.604)"/><rect x="191" y="75" width="5" height="8" fill="#FF2828" rx="0" transform="matrix(.98698 .8158 -.45466 .63738 68.647 -77.364)"/><rect x="41" y="679" width="8" height="8" fill="#FF4409" rx="0" transform="matrix(-.6373 .76412 -.7547 -.66424 492.145 1109.416)"/><rect x="1970" y="325" width="8" height="16" fill="#FF2828" rx="0" transform="matrix(.01741 .99635 -1.00519 -.08717 2306.504 -1570.304)"/><rect x="640" y="177" width="8" height="22" fill="#FDA829" rx="0" transform="matrix(-.96094 -.1472 -.04362 -1.04733 1213.46 701.437)"/><rect x="1006" y="812" width="8" height="8" fill="#FDA829" rx="0" transform="matrix(.51446 .85834 -.85592 .51574 1228.82 -524.707)"/><rect x="462" y="258" width="6" height="6" fill="#FDA829" rx="0" transform="matrix(1.01363 .12217 .06983 .99497 11.476 -22.979)"/><rect x="1551" y="566" width="9" height="22" fill="#FF2828" rx="0" transform="matrix(.01414 1.01247 -.98769 0 1987.682 -751.523)"/><rect x="1289" y="212" width="6" height="13" fill="#FF4409" rx="0" transform="matrix(1.00586 .01745 .32682 .99985 -3.742 -22.515)"/><rect x="862" y="853" width="5" height="8" fill="#FF2828" rx="0" transform="matrix(-.54464 .81965 -.83867 -.57393 2054.081 670.455)"/><rect x="1196" y="17" width="5" height="7" fill="#FF4409" rx="0" transform="matrix(.94424 .48845 -.34383 .88119 79.73 -435.815)"/><rect x="1646" y="912" width="8" height="11" fill="#FF2828" rx="0" transform="matrix(-.94247 .15936 -.32446 -1.00617 3481.159 1898.445)"/><rect x="1420" y="935" width="7" height="11" fill="#FF4409" rx="0" transform="matrix(-.89533 .31205 -.44904 -.9604 3332.638 1199.49)"/><rect x="1412" y="310" width="7" height="8" fill="#FDA829" rx="0" transform="matrix(1.11416 .5332 -.02118 .8874 43.857 -340.117)"/><rect x="892" y="481" width="8" height="15" fill="#FF2828" rx="0" transform="matrix(.9968 -.05262 -.01727 1.00413 25.082 -49.04)"/><rect x="1337" y="656" width="8" height="21" fill="#FF2828" rx="0" transform="matrix(.97814 .19084 -.20793 .98178 143.804 -220.36)"/><rect x="1539" y="167" width="9" height="25" fill="#FDA829" rx="0" transform="matrix(-.06399 .96962 -1.0142 -.2598 1837.06 -1405.505)"/><rect x="1883" y="884" width="8" height="22" fill="#F6F5FC" rx="0" transform="matrix(.52992 .92252 -.84805 .41073 1646.045 -948.208)"/><rect x="809" y="330" width="9" height="25" fill="#F6F5FC" rx="0" transform="matrix(-.98677 -.17977 -.03372 -1.01955 1598.417 1055.918)"/><rect x="1132" y="273" width="5" height="5" fill="#FDA829" rx="0" transform="matrix(.24054 1.00492 -.96557 .12339 1111.721 -718.886)"/><rect x="990" y="342" width="6" height="16" fill="#FDA829" rx="0" transform="matrix(1.03088 .1397 .17716 .99405 8.189 -49.768)"/><rect x="1713" y="278" width="8" height="13" fill="#FF4409" rx="0" transform="matrix(1.0842 .44193 .06227 .94772 9.76 -218.977)"/><rect x="1823" y="790" width="7" height="13" fill="#FDA829" rx="0" transform="matrix(.86313 .53194 -.4986 .85129 597.017 -693.347)"/><rect x="307" y="790" width="6" height="9" fill="#FF4409" rx="0" transform="matrix(-.82209 .39804 -.57556 -.93773 1037.051 1476.394)"/><rect x="1346" y="325" width="6" height="7" fill="#FF4409" rx="0" transform="matrix(-.99663 .01746 -.19328 -1 2812.701 657)"/><rect x="288" y="105" width="8" height="21" fill="#FF2828" rx="0" transform="matrix(1.00464 .01746 .29215 1.00046 1.16 -15.349)"/><rect x="160" y="692" width="8" height="17" fill="#FF2828" rx="0" transform="matrix(.9832 .45965 -.24594 .90211 225.833 19.162)"/><rect x="290" y="632" width="8" height="8" fill="#FF4409" rx="0" transform="matrix(.88158 .42789 -.44653 .9176 391.18 -119.96)"/><rect x="1440" y="762" width="5" height="6" fill="#FF4409" rx="0" transform="matrix(-.11103 .97542 -.99545 -.26136 2525.414 -644.829)"/><rect x="510" y="410" width="9" height="14" fill="#F6F5FC" rx="0" transform="matrix(.97477 .24494 -.1731 .9824 41.555 -37.188)"/><rect x="584" y="814" width="6" height="7" fill="#FF4409" rx="0" transform="matrix(.23603 .98904 -1.04846 -.15665 1597.65 395.755)"/><rect x="1974" y="879" width="7" height="19" fill="#FDA829" rx="0" transform="matrix(-.97898 .15838 -.13269 -1 3819.443 1777)"/><rect x="1495" y="401" width="5" height="10" fill="#FF4409" rx="0" transform="matrix(.68545 .65646 -.7348 .75517 744.636 -935.94)"/><rect x="622" y="114" width="6" height="9" fill="#FF2828" rx="0" transform="matrix(-.6868 .64289 -.737 -.76616 1156.701 -203.423)"/><rect x="958" y="177" width="5" height="10" fill="#FDA829" rx="0" transform="matrix(.99185 .15665 -.12138 .98904 41.436 -198.805)"/><rect x="1817" y="239" width="7" height="7" fill="#FF4409" rx="0" transform="matrix(-.12242 1.0049 -.9994 .0351 2283.041 -1786.765)"/><rect x="1120" y="448" width="5" height="14" fill="#FDA829" rx="0" transform="matrix(.2173 .99324 -.96062 .21112 1212.258 -558.04)"/><rect x="91" y="458" width="8" height="23" fill="#FF4409" rx="0" transform="matrix(-.36336 .69252 -1.05435 -.74264 791.964 769.13)"/><rect x="1853" y="492" width="9" height="9" fill="#FF2828" rx="0" transform="matrix(-.43933 .58474 -1.05882 -.86692 3545.097 408.659)"/><rect x="1400" y="881" width="8" height="11" fill="#F6F5FC" rx="0" transform="matrix(.62516 .66913 -.80017 .74314 1079.311 -711.757)"/><rect x="1775" y="860" width="7" height="9" fill="#FDA829" rx="0" transform="matrix(.6541 .9601 -.81633 .3306 1528.625 -815.244)"/><rect x="1321" y="470" width="6" height="8" fill="#FF4409" rx="0" transform="matrix(-.27564 .95645 -.96126 -.29242 2144.582 -630.625)"/><rect x="1790" y="664" width="7" height="8" fill="#F6F5FC" rx="0" transform="matrix(-.91306 .26024 -.43493 -.97125 3859.11 661.54)"/><rect x="872" y="117" width="5" height="9" fill="#FDA829" rx="0" transform="matrix(.55884 .87632 -.80535 .52654 440.445 -522.934)"/><rect x="979" y="852" width="5" height="10" fill="#FDA829" rx="0" transform="matrix(-1.00746 -.07044 -.21133 -1.00737 2291.268 1927.394)"/><rect x="1851" y="349" width="8" height="23" fill="#FF2828" rx="0" transform="matrix(-1.01026 -.07106 -.37525 -1.01624 4044.1 1219.248)"/><rect x="77" y="346" width="7" height="7" fill="#FDA829" rx="0" transform="matrix(.06899 .98188 -1.03311 -.2087 505.325 350.444)"/><rect x="612" y="150" width="5" height="5" fill="#F6F5FC" rx="0" transform="matrix(-.91752 .12814 -.33131 -1.04362 1198.03 432.573)"/><rect x="1465" y="294" width="8" height="13" fill="#FF2828" rx="0" transform="matrix(-.17299 .97542 -.97885 -.26136 1990.696 -847.396)"/><rect x="1751" y="47" width="6" height="7" fill="#F6F5FC" rx="0" transform="matrix(.9545 .63018 -.40812 .77821 133.287 -1002.22)"/><rect x="171" y="495" width="7" height="15" fill="#F6F5FC" rx="0" transform="matrix(-.93376 .54497 -.3971 -.83918 467.218 822.998)"/><rect x="748" y="301" width="6" height="13" fill="#FDA829" rx="0" transform="matrix(-.09063 .82402 -1.14276 -.6438 1344.977 116.234)"/><rect x="1002" y="680" width="7" height="9" fill="#FF4409" rx="0" transform="matrix(.37096 1.03887 -.98202 -.05445 1441.42 -34.497)"/><rect x="589" y="549" width="8" height="19" fill="#FF4409" rx="0" transform="matrix(-.70935 .84183 -.70943 -.56782 1401.938 271.862)"/><rect x="1708" y="664" width="6" height="11" fill="#FF4409" rx="0" transform="matrix(.06386 1.0446 -.96742 -.16545 2117.14 -417.898)"/><rect x="870" y="428" width="8" height="14" fill="#F6F5FC" rx="0" transform="matrix(.05243 .9968 -1.0078 -.0872 1315.494 -367.748)"/><rect x="874" y="194" width="8" height="19" fill="#F6F5FC" rx="0" transform="matrix(.29902 .87253 -.97345 .50375 803.496 -772.9)"/><rect x="201" y="778" width="7" height="13" fill="#F6F5FC" rx="0" transform="matrix(-.17425 .86785 -1.04757 -.52146 1250.548 1048.498)"/><rect x="1874" y="279" width="8" height="21" fill="#F6F5FC" rx="0" transform="matrix(1.02608 .30944 -.0737 .95236 47.771 -468.917)"/><rect x="103" y="170" width="6" height="11" fill="#F6F5FC" rx="0" transform="matrix(.77459 .91311 -.73396 .4258 203.216 16.999)"/><rect x="105" y="212" width="7" height="16" fill="#FDA829" rx="0" transform="matrix(-.95856 -.01835 -.42146 -1.0513 336.565 488.531)"/><rect x="689" y="828" width="6" height="15" fill="#FDA829" rx="0" transform="matrix(-.49028 .93415 -.88229 -.35859 1616.848 512.833)"/><rect x="1269" y="534" width="9" height="11" fill="#F6F5FC" rx="0" transform="matrix(.38938 1 -.88835 .28675 1129.747 -523.529)"/><rect x="741" y="731" width="5" height="8" fill="#F6F5FC" rx="0" transform="matrix(.79648 .60328 -.60062 .80059 537.739 -249.982)"/><rect x="736" y="560" width="6" height="15" fill="#FF4409" rx="0" transform="matrix(.89664 .39222 -.4372 .92402 342.053 -311.39)"/><rect x="1872" y="712" width="8" height="16" fill="#F6F5FC" rx="0" transform="matrix(.58722 .60932 -.86192 .8086 1320.393 -1302.393)"/><rect x="423" y="629" width="9" height="21" fill="#FDA829" rx="0" transform="matrix(-.72233 .79235 -.69772 -.61905 1161.726 651.722)"/><rect x="721" y="458" width="9" height="16" fill="#FDA829" rx="0" transform="matrix(1.01604 .24251 -.0484 .97267 122.186 -213.937)"/><rect x="536" y="950" width="6" height="12" fill="#F6F5FC" rx="0" transform="matrix(-.40674 .85638 -.91355 -.53513 1631.58 1081.743)"/><rect x="135" y="199" width="7" height="10" fill="#FDA829" rx="0" transform="matrix(.81735 .4551 -.59318 .89318 129.305 -50.925)"/><rect x="636" y="434" width="6" height="7" fill="#F6F5FC" rx="0" transform="matrix(-.92877 .57436 -.41464 -.82028 1357.107 395.864)"/><rect x="223" y="785" width="6" height="11" fill="#FDA829" rx="0" transform="matrix(.585 .8272 -.79927 .57921 845.782 113.922)"/><rect x="914" y="501" width="7" height="20" fill="#FF4409" rx="0" transform="matrix(.83685 .69848 -.56508 .7233 480.92 -403.034)"/><rect x="1453" y="900" width="5" height="10" fill="#FDA829" rx="0" transform="matrix(-.95488 -.11055 -.03949 -1.05183 2633.112 2518.98)"/><rect x="1171" y="385" width="5" height="10" fill="#FF4409" rx="0" transform="matrix(.73857 .90374 -.74628 .44079 716.359 -719.111)"/><rect x="469" y="54" width="8" height="14" fill="#FF4409" rx="0" transform="matrix(-.99616 -.0535 -.31814 -1.02094 989.177 249.125)"/><rect x="117" y="285" width="6" height="16" fill="#FDA829" rx="0" transform="matrix(-.15838 1 -.95756 -.26795 368.072 283.663)"/><rect x="340" y="256" width="5" height="13" fill="#FDA829" rx="0" transform="matrix(-.35987 .9614 -.93695 -.27568 683.486 11.562)"/><rect x="1065" y="733" width="9" height="17" fill="#FF4409" rx="0" transform="matrix(.86593 .89976 -.6702 .45845 930.104 -410.43)"/><rect x="262" y="958" width="8" height="18" fill="#FF2828" rx="0" transform="matrix(-1.02527 -.10773 -.4722 -1.02497 1331.091 2053.12)"/><rect x="1412" y="571" width="7" height="18" fill="#F6F5FC" rx="0" transform="matrix(.83403 .3306 -.6027 .9601 543.927 -694.403)"/><rect x="447" y="346" width="6" height="12" fill="#FF4409" rx="0" transform="matrix(.97567 .39172 -.13797 .96955 33.857 -27.978)"/><rect x="1967" y="941" width="9" height="23" fill="#FF4409" rx="0" transform="matrix(-.503 .68982 -.87102 -.79355 3820.612 988.952)"/><rect x="1956" y="455" width="6" height="8" fill="#FDA829" rx="0" transform="matrix(.50442 .9176 -.85458 .42789 1400.17 -1845.263)"/><rect x="1235" y="485" width="8" height="11" fill="#FF4409" rx="0" transform="matrix(-.87036 .4258 -.48206 -.91311 2520.154 562.956)"/><rect x="1711" y="549" width="6" height="16" fill="#FF4409" rx="0" transform="matrix(-.56278 .71592 -.83402 -.71592 3172.092 .15)"/><rect x="919" y="575" width="6" height="10" fill="#FF4409" rx="0" transform="matrix(.4191 .89657 -.89252 .47671 1104.505 -685.704)"/><rect x="206" y="635" width="8" height="19" fill="#FF2828" rx="0" transform="matrix(.48064 .91521 -.86851 .42677 621.69 206.764)"/><rect x="808" y="475" width="6" height="16" fill="#F6F5FC" rx="0" transform="matrix(.8664 .50623 -.47471 .87682 400.146 -479.509)"/><rect x="1222" y="183" width="7" height="9" fill="#F6F5FC" rx="0" transform="matrix(.9449 .34842 -.27397 .95728 66.615 -180.768)"/><rect x="435" y="787" width="6" height="16" fill="#FF4409" rx="0" transform="matrix(-.89542 .5189 -.4369 -.8636 1203.411 1200.505)"/><rect x="1744" y="552" width="8" height="21" fill="#FF4409" rx="0" transform="matrix(-.9706 .1392 -.27804 -.99042 3673.816 906.81)"/><rect x="864" y="389" width="7" height="7" fill="#FF4409" rx="0" transform="matrix(-.38418 .71242 -1.01949 -.71242 1763.068 160.618)"/><rect x="439" y="562" width="5" height="13" fill="#FDA829" rx="0" transform="matrix(.34004 1.05002 -.93454 .05503 810.232 217.084)"/><rect x="312" y="977" width="5" height="13" fill="#FF2828" rx="0" transform="matrix(-1.0054 -.15885 -.05248 -1.00293 718.587 2075.29)"/><rect x="1484" y="274" width="6" height="16" fill="#FF2828" rx="0" transform="matrix(-.43395 .86392 -.88635 -.53984 2332.277 -561.372)"/><rect x="1654" y="330" width="7" height="17" fill="#FF4409" rx="0" transform="matrix(.50217 .98703 -.91552 .19186 1244.034 -1188.244)"/><rect x="1200" y="480" width="8" height="15" fill="#FF4409" rx="0" transform="matrix(1.00417 .33284 -.08811 .96664 63.896 -128.561)"/><rect x="1380" y="532" width="8" height="11" fill="#FF4409" rx="0" transform="matrix(.26398 .90099 -.98114 .43944 1491.902 -1042.447)"/><rect x="1549" y="317" width="6" height="10" fill="#FF2828" rx="0" transform="matrix(.43987 .98846 -.902 .24645 1170.651 -989.763)"/><rect x="362" y="86" width="6" height="13" fill="#F6F5FC" rx="0" transform="matrix(.7732 .77026 -.64946 .64633 152.007 -210.069)"/><rect x="746" y="734" width="6" height="16" fill="#F6F5FC" rx="0" transform="matrix(.9494 .1573 -.3632 .99313 237.686 -191.44)"/><rect x="1269" y="819" width="6" height="13" fill="#FF2828" rx="0" transform="matrix(-.37093 .88537 -.91531 -.51117 2422.78 391.649)"/><rect x="972" y="790" width="9" height="9" fill="#FF4409" rx="0" transform="matrix(.91953 .76936 -.47183 .69273 564.45 -245.506)"/><rect x="1833" y="105" width="6" height="17" fill="#F6F5FC" rx="0" transform="matrix(1.03623 .37604 -.09454 .93073 2.473 -521.913)"/><rect x="1225" y="739" width="5" height="10" fill="#FF2828" rx="0" transform="matrix(.74483 .7718 -.6707 .64761 827.84 -534.489)"/><rect x="1935" y="170" width="5" height="14" fill="#FF4409" rx="0" transform="matrix(-.94552 0 -.15806 -1.05762 3663.72 1031.334)"/><rect x="1238" y="677" width="9" height="14" fill="#FDA829" rx="0" transform="matrix(.90936 .75636 -.44397 .7304 454.276 -351.661)"/><rect x="788" y="903" width="8" height="13" fill="#F6F5FC" rx="0" transform="matrix(.94238 .50491 -.34829 .87454 606.437 -397.09)"/><rect x="1515" y="449" width="5" height="8" fill="#FF2828" rx="0" transform="matrix(-.85393 .34249 -.57364 -.94098 3176.713 439.066)"/><rect x="969" y="418" width="6" height="10" fill="#FDA829" rx="0" transform="matrix(.96795 .2818 -.17305 .98274 38.18 -59.998)"/><rect x="1245" y="470" width="8" height="10" fill="#F6F5FC" rx="0" transform="matrix(-.46698 .85129 -.88289 -.53194 2309.56 -444.858)"/><rect x="200" y="885" width="7" height="10" fill="#FF2828" rx="0" transform="matrix(.81064 .48748 -.58893 .87944 547.518 -13.29)"/><rect x="1535" y="454" width="8" height="23" fill="#FF2828" rx="0" transform="matrix(.45399 .90686 -.891 .42288 1255.072 -1073.264)"/><rect x="1122" y="718" width="7" height="19" fill="#FDA829" rx="0" transform="matrix(.49028 .93415 -.88229 .35859 1336.9 -624.06)"/><rect x="1254" y="929" width="5" height="8" fill="#FDA829" rx="0" transform="matrix(.22794 .99589 -.98017 .10467 2037.5 -481.84)"/><rect x="1047" y="577" width="5" height="5" fill="#F6F5FC" rx="0" transform="matrix(-.56249 .50435 -.968 -.90987 2453.253 878.394)"/><rect x="231" y="24" width="9" height="22" fill="#FF4409" rx="0" transform="matrix(-.0083 .9323 -1.06927 -.37667 292.014 -146.619)"/><rect x="1459" y="587" width="5" height="10" fill="#F6F5FC" rx="0" transform="matrix(.87204 .62516 -.48344 .80017 458.384 -537.667)"/><rect x="1716" y="509" width="6" height="6" fill="#FF2828" rx="0" transform="matrix(.03223 .89691 -1.13508 -.56045 2561.286 -150.942)"/><rect x="1826" y="453" width="9" height="10" fill="#FF4409" rx="0" transform="matrix(-.01303 .99146 -1.00655 -.15703 2384.107 -1445.097)"/><rect x="553" y="705" width="8" height="21" fill="#FF2828" rx="0" transform="matrix(-.95394 .24374 -.2767 -.97758 1388.819 1210.807)"/><rect x="1725" y="606" width="8" height="21" fill="#F6F5FC" rx="0" transform="matrix(.69066 .91593 -.69304 .52881 877.363 -697.806)"/><rect x="1622" y="446" width="7" height="11" fill="#FDA829" rx="0" transform="matrix(.05306 .98402 -1.00592 .19127 1969.801 -1348.058)"/><rect x="733" y="280" width="5" height="13" fill="#FDA829" rx="0" transform="matrix(-.99205 -.01758 .03705 -1.00736 1401.583 678.348)"/><rect x="1467" y="211" width="5" height="8" fill="#FDA829" rx="0" transform="matrix(-1.01674 -.14132 -.15836 -1.00554 3055.866 897.974)"/><rect x="615" y="164" width="9" height="15" fill="#F6F5FC" rx="0" transform="matrix(-.80774 .80463 -.63413 -.60633 1215.236 -299.049)"/><rect x="381" y="408" width="8" height="17" fill="#FDA829" rx="0" transform="matrix(.5142 1.02253 -.89652 .16195 615.05 58.533)"/><rect x="1394" y="46" width="5" height="6" fill="#F6F5FC" rx="0" transform="matrix(1.00046 .01745 .01746 .99985 .217 -24.365)"/><rect x="399" y="366" width="6" height="10" fill="#F6F5FC" rx="0" transform="matrix(.97481 .25886 -.22506 .96607 100.22 -84.457)"/><rect x="1945" y="80" width="7" height="7" fill="#FF4409" rx="0" transform="matrix(.66768 .70883 -.7431 .70883 682.6 -1220.597)"/><rect x="434" y="802" width="6" height="13" fill="#FF4409" rx="0" transform="matrix(-.70542 .5634 -.72914 -.83526 1410.203 1291.265)"/><rect x="183" y="869" width="6" height="7" fill="#FF4409" rx="0" transform="matrix(-.5605 .65482 -.85917 -.78038 1135.38 1467.742)"/><rect x="229" y="405" width="5" height="6" fill="#FF2828" rx="0" transform="matrix(-1.01934 -.12307 -.1762 -1.0023 609.141 877.964)"/><rect x="1081" y="422" width="9" height="26" fill="#FF4409" rx="0" transform="matrix(.92286 .55 -.39713 .84691 342.84 -682.98)"/><rect x="390" y="247" width="8" height="19" fill="#FF2828" rx="0" transform="matrix(.51716 .89934 -.85969 .43864 440.553 -224.11)"/><rect x="1644" y="986" width="7" height="19" fill="#F6F5FC" rx="0" transform="matrix(1.00998 -.07044 -.24738 1.00737 95.113 -122.822)"/><rect x="1722" y="971" width="5" height="13" fill="#FF4409" rx="0" transform="matrix(-.98767 .12194 -.1566 -.99315 3644.955 1677.793)"/><rect x="119" y="104" width="7" height="17" fill="#FF2828" rx="0" transform="matrix(-.0176 .99497 -1.0029 -.12217 241.708 12.926)"/><rect x="1530" y="837" width="7" height="16" fill="#FF4409" rx="0" transform="matrix(1.06066 .56385 -.14025 .86826 269.61 -342.443)"/><rect x="1264" y="164" width="8" height="13" fill="#FF2828" rx="0" transform="matrix(.56281 .75575 -.83395 .65696 689.264 -966.25)"/><rect x="1856" y="326" width="5" height="9" fill="#FF4409" rx="0" transform="matrix(-.2448 .99269 -.97296 -.13951 2553.823 -1338.34)"/><rect x="1408" y="476" width="9" height="12" fill="#FF2828" rx="0" transform="matrix(.99193 -.03533 -.1042 1.01185 66.136 -179.519)"/><rect x="471" y="523" width="7" height="17" fill="#FF2828" rx="0" transform="matrix(-.40438 .90977 -.91061 -.42423 1201.869 283.78)"/><rect x="1161" y="771" width="5" height="5" fill="#FF2828" rx="0" transform="matrix(.99384 .03492 -.17633 1 0 0)"/><rect x="1948" y="732" width="6" height="15" fill="#FF2828" rx="0" transform="matrix(-1.02183 -.10556 -.24837 -1.0043 4343.722 1962.311)"/><rect x="1540" y="41" width="8" height="20" fill="#F6F5FC" rx="0" transform="matrix(1.08814 .39676 .04307 .9347 -45.593 -337.017)"/><rect x="1675" y="414" width="5" height="8" fill="#FF4409" rx="0" transform="matrix(-.68588 .82228 -.73587 -.57577 3121.445 -867.468)"/><rect x="748" y="635" width="6" height="8" fill="#FF2828" rx="0" transform="matrix(-.79052 .27064 -.74461 -1.01006 2005.117 1310.778)"/><rect x="1528" y="602" width="5" height="10" fill="#FF2828" rx="0" transform="matrix(.2919 .95996 -.95247 .29349 1703.292 -1174.264)"/><rect x="1220" y="609" width="5" height="9" fill="#FF4409" rx="0" transform="matrix(1.10868 .44193 .11477 .94772 61.26 -134.427)"/><rect x="344" y="833" width="6" height="17" fill="#FF4409" rx="0" transform="matrix(-.71425 .41325 -.7372 -.97354 1282.403 1636.824)"/><rect x="39" y="721" width="7" height="14" fill="#F6F5FC" rx="0" transform="matrix(.88546 .63086 -.4917 .77904 439.65 137.017)"/><rect x="363" y="261" width="9" height="21" fill="#FF4409" rx="0" transform="matrix(-.83203 .6297 -.56058 -.77762 790.556 264.04)"/><rect x="1774" y="798" width="9" height="20" fill="#FF4409" rx="0" transform="matrix(.54627 .74047 -.84109 .6905 1477.377 -1348.536)"/><rect x="996" y="124" width="9" height="17" fill="#FDA829" rx="0" transform="matrix(-.8491 .38298 -.50952 -.9479 1899.455 87.592)"/><rect x="972" y="796" width="7" height="19" fill="#FF4409" rx="0" transform="matrix(.74985 .98162 -.73088 .37681 970.567 -138.636)"/><rect x="937" y="940" width="8" height="10" fill="#FDA829" rx="0" transform="matrix(.22495 .95864 -.97437 .29309 1650.1 -299.847)"/><rect x="1293" y="155" width="7" height="7" fill="#FF2828" rx="0" transform="matrix(-.15332 .87796 -1.0432 -.54861 1740.747 -545.43)"/><rect x="430" y="803" width="6" height="9" fill="#FF4409" rx="0" transform="matrix(-.83318 .46976 -.56178 -.88349 1304.926 1332.63)"/><rect x="817" y="369" width="7" height="15" fill="#F6F5FC" rx="0" transform="matrix(1.06158 .39288 -.04436 .92558 90.17 -208.102)"/><rect x="207" y="119" width="8" height="14" fill="#FF2828" rx="0" transform="matrix(.94776 .5201 -.34537 .8656 62.696 -63.151)"/><rect x="1103" y="61" width="6" height="13" fill="#FF4409" rx="0" transform="matrix(.89663 .69476 -.47782 .74504 166.333 -536.214)"/><rect x="750" y="716" width="7" height="7" fill="#FF2828" rx="0" transform="matrix(-.10453 .96256 -.99452 -.40858 1547.82 518.552)"/><rect x="931" y="270" width="6" height="11" fill="#FDA829" rx="0" transform="matrix(-.52807 .62171 -.93256 -.79575 1793.132 45.317)"/><rect x="87" y="462" width="5" height="11" fill="#FF4409" rx="0" transform="matrix(-.29572 .89591 -.9655 -.4565 600.687 610.132)"/><rect x="1448" y="953" width="5" height="9" fill="#FF4409" rx="0" transform="matrix(-.99183 -.08945 -.15702 -1.0224 3062.053 2401.066)"/><rect x="151" y="562" width="7" height="13" fill="#FDA829" rx="0" transform="matrix(.54575 .77026 -.84032 .64633 538.264 65.818)"/><rect x="772" y="452" width="5" height="5" fill="#FF2828" rx="0" transform="matrix(.5338 .75887 -.85372 .65967 729.532 -514.467)"/><rect x="556" y="85" width="9" height="20" fill="#FF2828" rx="0" transform="matrix(1.05163 .15703 .27163 .99146 -5.15 -38.168)"/><rect x="512" y="967" width="8" height="16" fill="#FDA829" rx="0" transform="matrix(.7957 .96216 -.73388 .36934 1075.75 247.073)"/><rect x="1580" y="715" width="9" height="26" fill="#FF2828" rx="0" transform="matrix(.59678 1.04014 -.97182 -.01816 1730.557 -452.538)"/><rect x="89" y="321" width="5" height="9" fill="#F6F5FC" rx="0" transform="matrix(.62859 .98354 -.88313 .20906 430.33 177.076)"/><rect x="1377" y="429" width="8" height="18" fill="#FF2828" rx="0" transform="matrix(.8116 .74264 -.58973 .69252 530.379 -647.396)"/><rect x="1223" y="489" width="8" height="14" fill="#FF4409" rx="0" transform="matrix(-.966 .5201 -.315 -.8656 2540.225 114.727)"/><rect x="64" y="108" width="5" height="5" fill="#FDA829" rx="0" transform="matrix(.3897 .99452 -.96455 .10453 178.853 32.814)"/><rect x="535" y="188" width="7" height="17" fill="#FDA829" rx="0" transform="matrix(.4897 1.05082 -.93454 .0367 510.637 -201.609)"/><rect x="1842" y="741" width="5" height="11" fill="#FDA829" rx="0" transform="matrix(.28842 1.00046 -.9945 .01746 2263.45 -1176.29)"/><rect x="1766" y="504" width="6" height="17" fill="#FF2828" rx="0" transform="matrix(-.15744 .92839 -.99342 -.49363 2575.625 -302.046)"/><rect x="1962" y="399" width="6" height="6" fill="#FF2828" rx="0" transform="matrix(.10282 .97324 -1.05698 -.27907 2352.52 -1087.011)"/><rect x="571" y="114" width="6" height="16" fill="#FF4409" rx="0" transform="matrix(.8152 .5189 -.5704 .8636 178.361 -351.69)"/><rect x="531" y="50" width="7" height="19" fill="#FF4409" rx="0" transform="matrix(1.10557 .67072 -.21914 .77157 16.22 -231.295)"/><rect x="1613" y="688" width="9" height="13" fill="#FF4409" rx="0" transform="matrix(-.76343 .56227 -.64666 -.8336 3412.942 193.955)"/><rect x="1920" y="507" width="7" height="9" fill="#F6F5FC" rx="0" transform="matrix(.94186 .27568 -.34276 .9614 262.111 -544.104)"/><rect x="1654" y="882" width="7" height="10" fill="#FF4409" rx="0" transform="matrix(.4694 .88308 -.88282 .46954 1646.547 -964.262)"/><rect x="623" y="24" width="5" height="9" fill="#FDA829" rx="0" transform="matrix(-.2811 1.00536 -.98977 -.01755 835.436 -665.592)"/><rect x="1243" y="560" width="5" height="14" fill="#FF4409" rx="0" transform="matrix(.58898 1.0249 -.94484 .05371 1308.91 -452.419)"/><rect x="316" y="91" width="9" height="13" fill="#F6F5FC" rx="0" transform="matrix(-.78968 .4232 -.66949 -.90755 665.09 33.555)"/><rect x="1432" y="38" width="6" height="17" fill="#FF2828" rx="0" transform="matrix(-.4302 .85216 -.87225 -.5967 2036.665 -737.129)"/><rect x="1923" y="668" width="8" height="23" fill="#FF2828" rx="0" transform="matrix(.6245 .7283 -.76997 .70332 1272.948 -1507.058)"/><rect x="1580" y="516" width="5" height="12" fill="#FDA829" rx="0" transform="matrix(.94656 .4518 -.27269 .9263 162.826 -281.932)"/><rect x="1809" y="565" width="9" height="16" fill="#F6F5FC" rx="0" transform="matrix(-.5064 .82308 -.83334 -.62024 3065.296 -112.11)"/><rect x="1766" y="194" width="6" height="13" fill="#FF2828" rx="0" transform="matrix(-.99422 -.09114 -.3916 -1.04171 3737.003 1111.424)"/><rect x="29" y="236" width="8" height="19" fill="#FF4409" rx="0" transform="matrix(.22845 .99572 -.97219 .13994 311.18 174.818)"/><rect x="1572" y="454" width="5" height="6" fill="#FF4409" rx="0" transform="matrix(-.84562 .26563 -.6088 -.99133 3299.456 855.312)"/><rect x="444" y="156" width="7" height="14" fill="#FF4409" rx="0" transform="matrix(-.42532 .70808 -.98696 -.70808 862.905 -14.995)"/><rect x="715" y="935" width="7" height="19" fill="#F6F5FC" rx="0" transform="matrix(.47033 .83018 -.88732 .55996 1063.09 -143.208)"/><rect x="863" y="705" width="5" height="8" fill="#FF4409" rx="0" transform="matrix(-.62594 .55143 -.84962 -.84912 2189.466 970.85)"/><rect x="228" y="512" width="8" height="12" fill="#FDA829" rx="0" transform="matrix(.99173 .25917 -.15722 .96725 111.143 -31.006)"/><rect x="1797" y="573" width="6" height="15" fill="#FDA829" rx="0" transform="matrix(-.43569 .90768 -.87971 -.46249 2930.857 -434.971)"/><rect x="1779" y="327" width="5" height="8" fill="#FDA829" rx="0" transform="matrix(1.0117 .41073 -.16237 .92252 104.295 -455.704)"/><rect x="1767" y="977" width="9" height="14" fill="#FF2828" rx="0" transform="matrix(.18533 1.01845 -.96567 .0891 2250.411 -531.318)"/><rect x="946" y="555" width="8" height="23" fill="#FF4409" rx="0" transform="matrix(-.98473 -.03613 -.52163 -1.03465 2416.43 1441.503)"/><rect x="1056" y="661" width="8" height="12" fill="#FF4409" rx="0" transform="matrix(-.37534 .89893 -.92936 -.43844 2134.487 -11.931)"/><rect x="669" y="22" width="7" height="16" fill="#FF4409" rx="0" transform="matrix(.12421 .98297 -1.04147 -.19107 637.692 -590.074)"/><rect x="1073" y="94" width="5" height="5" fill="#FF4409" rx="0" transform="matrix(.55383 .8215 -.81491 .59685 545.41 -1034.256)"/><rect x="276" y="342" width="5" height="6" fill="#FF4409" rx="0" transform="matrix(.7431 .70883 -.66768 .70883 341.866 -116.432)"/><rect x="1157" y="508" width="5" height="14" fill="#FDA829" rx="0" transform="matrix(.35793 .99954 -.98796 .0349 1416.921 -641.707)"/><rect x="1888" y="192" width="5" height="10" fill="#FF4409" rx="0" transform="matrix(-.94434 .62028 -.40346 -.79393 3760.198 -1051.369)"/><rect x="1028" y="686" width="5" height="13" fill="#FDA829" rx="0" transform="matrix(.92718 .2443 -.3746 .97983 334.452 -382.611)"/><rect x="1106" y="77" width="7" height="20" fill="#F6F5FC" rx="0" transform="matrix(.46911 .96651 -.85457 .37101 616.183 -720.335)"/><rect x="210" y="187" width="8" height="8" fill="#F6F5FC" rx="0" transform="matrix(1.06433 .43017 .06587 .96618 15.574 -11.912)"/><rect x="755" y="79" width="6" height="14" fill="#F6F5FC" rx="0" transform="matrix(.81306 .4574 -.59054 .8977 192.73 -430.982)"/><rect x="1759" y="149" width="9" height="14" fill="#FF4409" rx="0" transform="matrix(-1.02396 -.15993 -.21227 -1.00975 3686.444 970.4)"/><rect x="658" y="538" width="9" height="18" fill="#FF2828" rx="0" transform="matrix(-.93758 .19084 -.4166 -.98178 1630.253 969.166)"/><rect x="426" y="437" width="9" height="18" fill="#F6F5FC" rx="0" transform="matrix(.43805 1.02648 -1.05935 -.19953 902.069 224.707)"/><rect x="1637" y="102" width="8" height="8" fill="#FDA829" rx="0" transform="matrix(.86646 .6887 -.52285 .73854 231.65 -1333.07)"/><rect x="587" y="320" width="5" height="9" fill="#FF4409" rx="0" transform="matrix(.34584 .8708 -.9487 .50275 675.12 -413.937)"/><rect x="1208" y="567" width="9" height="14" fill="#FF4409" rx="0" transform="matrix(.95777 .19224 -.27448 .989 223.602 -375.655)"/><rect x="162" y="976" width="6" height="17" fill="#FF2828" rx="0" transform="matrix(1.00106 .8768 -.46528 .59141 698.296 314.394)"/><rect x="157" y="336" width="5" height="12" fill="#FF4409" rx="0" transform="matrix(.25747 .98354 -.96201 .20906 428.64 130.393)"/><rect x="1571" y="913" width="9" height="25" fill="#FF4409" rx="0" transform="matrix(-.3681 .85442 -.94038 -.5339 3249.568 -119.957)"/><rect x="1858" y="641" width="7" height="7" fill="#F6F5FC" rx="0" transform="matrix(-.28845 .81977 -.9945 -.64047 3163.239 65.064)"/><rect x="339" y="764" width="5" height="12" fill="#FF2828" rx="0" transform="matrix(-.54359 .78298 -.83698 -.63405 1157.438 1032.758)"/><rect x="423" y="834" width="7" height="10" fill="#F6F5FC" rx="0" transform="matrix(.8374 .50771 -.5192 .87939 612.301 -190.547)"/><rect x="517" y="514" width="7" height="9" fill="#FF4409" rx="0" transform="matrix(.23026 .9723 -1.1033 -.31592 1189.34 286.856)"/><rect x="320" y="541" width="7" height="11" fill="#FF4409" rx="0" transform="matrix(.29334 .98857 -.95984 .17431 773.229 159.74)"/><rect x="678" y="420" width="5" height="7" fill="#FDA829" rx="0" transform="matrix(.87245 .41301 -.4617 .92764 314.228 -370.4)"/><rect x="352" y="325" width="6" height="10" fill="#FF4409" rx="0" transform="matrix(-.01728 .99924 -.99986 -.05237 713.297 -19.845)"/><rect x="336" y="211" width="9" height="20" fill="#FF2828" rx="0" transform="matrix(.91598 .32801 -.38845 .95262 123.845 -143.025)"/><rect x="1880" y="296" width="9" height="10" fill="#FDA829" rx="0" transform="matrix(-.2807 .75715 -1.05899 -.70606 2933.165 -408.382)"/><rect x="696" y="444" width="6" height="16" fill="#FF2828" rx="0" transform="matrix(.97969 .1573 -.17193 .99313 125.029 -180.312)"/><rect x="1917" y="610" width="5" height="12" fill="#FF4409" rx="0" transform="matrix(.88416 .6365 -.3978 .84465 333.187 -465.116)"/><rect x="930" y="395" width="7" height="13" fill="#FDA829" rx="0" transform="matrix(.58306 1 -.87607 .21256 846.733 -418.92)"/><rect x="933" y="790" width="6" height="14" fill="#FF2828" rx="0" transform="matrix(.6687 .91355 -.79692 .40674 1173.782 -382.248)"/><rect x="297" y="462" width="7" height="20" fill="#FDA829" rx="0" transform="matrix(-.13926 .9939 -.98903 -.12204 775.062 246.68)"/><rect x="1170" y="570" width="7" height="12" fill="#FDA829" rx="0" transform="matrix(.27079 1.01865 -.94844 .12508 1342.807 -420.51)"/><rect x="1827" y="403" width="6" height="14" fill="#FF2828" rx="0" transform="matrix(-.13076 .93872 -1.01508 -.36034 2560.425 -1352.463)"/><rect x="1781" y="752" width="7" height="11" fill="#FF2828" rx="0" transform="matrix(-.98903 -.03544 -.10374 -1.0148 3590.564 1904.111)"/><rect x="956" y="733" width="7" height="17" fill="#F6F5FC" rx="0" transform="matrix(-.45162 .85638 -.8855 -.53513 2003.498 451.447)"/><rect x="713" y="712" width="8" height="9" fill="#FDA829" rx="0" transform="matrix(-.99781 .19093 -.10435 -.98223 1416.148 1308.41)"/><rect x="1948" y="452" width="7" height="7" fill="#F6F5FC" rx="0" transform="matrix(.82718 .6846 -.57365 .73415 664.293 -1385.642)"/><rect x="1018" y="689" width="7" height="7" fill="#FF2828" rx="0" transform="matrix(.9848 0 -.33448 1.01543 165.99 -190.8)"/><rect x="1819" y="255" width="6" height="16" fill="#FDA829" rx="0" transform="matrix(1.05147 .41582 -.04323 .93395 32.256 -352.982)"/><rect x="404" y="441" width="8" height="20" fill="#F6F5FC" rx="0" transform="matrix(-.37422 .87676 -.93314 -.486 1063.645 283.937)"/><rect x="327" y="579" width="8" height="14" fill="#FF2828" rx="0" transform="matrix(-.15325 .88781 -1.04488 -.47206 1148.806 603.55)"/><rect x="342" y="511" width="8" height="19" fill="#FDA829" rx="0" transform="matrix(-.53697 .6365 -.85853 -.84465 1000.994 859.053)"/><rect x="364" y="865" width="5" height="10" fill="#FF2828" rx="0" transform="matrix(-.71934 .54471 -.63864 -.90656 1045.746 1585.263)"/><rect x="414" y="395" width="9" height="24" fill="#FF2828" rx="0" transform="matrix(.9994 .1576 -.0349 .9951 14.459 -12.582)"/><rect x="1733" y="795" width="9" height="9" fill="#F6F5FC" rx="0" transform="matrix(-.62428 .65967 -.79775 -.75887 3545.916 442.651)"/><rect x="784" y="813" width="6" height="15" fill="#FDA829" rx="0" transform="matrix(-.29491 .81358 -1.0069 -.61308 2016.907 836.219)"/><rect x="523" y="567" width="9" height="26" fill="#F6F5FC" rx="0" transform="matrix(.62204 .94487 -.83195 .3439 805.423 -62.44)"/><rect x="940" y="748" width="6" height="9" fill="#FDA829" rx="0" transform="matrix(-.58836 .81096 -.78975 -.6111 2195.479 281.344)"/><rect x="1533" y="279" width="8" height="14" fill="#FDA829" rx="0" transform="matrix(-.97852 -.03568 .0065 -1.02172 2931.083 959.75)"/><rect x="691" y="572" width="7" height="15" fill="#FF2828" rx="0" transform="matrix(.99084 .03498 -.20983 1.00183 72.148 -73.922)"/><rect x="345" y="491" width="7" height="19" fill="#F6F5FC" rx="0" transform="matrix(.42029 .86933 -.90765 .50191 562.681 -23.179)"/><rect x="361" y="961" width="5" height="8" fill="#F6F5FC" rx="0" transform="matrix(-.81075 .64318 -.58857 -.76651 1123.413 1483.581)"/><rect x="157" y="256" width="7" height="14" fill="#FDA829" rx="0" transform="matrix(.7679 .69476 -.64416 .71945 229.433 -40.526)"/><rect x="11" y="473" width="6" height="17" fill="#FDA829" rx="0" transform="matrix(-.88401 .51512 -.47006 -.8573 235.905 886.833)"/><rect x="1277" y="686" width="5" height="13" fill="#FF2828" rx="0" transform="matrix(1.0147 .13951 .05213 .99269 41.113 -83.97)"/><rect x="886" y="498" width="8" height="10" fill="#FDA829" rx="0" transform="matrix(.42272 .92955 -.89635 .39457 1031.278 -647.851)"/><rect x="1636" y="645" width="7" height="16" fill="#F6F5FC" rx="0" transform="matrix(.24108 1.01624 -.96717 .07106 1858.847 -740.835)"/><rect x="591" y="745" width="8" height="14" fill="#FF2828" rx="0" transform="matrix(.77808 .69988 -.6231 .72474 744.923 -282.488)"/><rect x="926" y="278" width="5" height="6" fill="#FDA829" rx="0" transform="matrix(1.0246 .12217 .15915 .99497 5.97 -47.091)"/><rect x="1368" y="766" width="6" height="13" fill="#FF2828" rx="0" transform="matrix(-.9756 .41073 -.24342 -.92252 2876.35 729.352)"/><rect x="1652" y="178" width="8" height="11" fill="#FF2828" rx="0" transform="matrix(-1.03179 -.12375 -.3224 -1.00786 3551.209 865.368)"/><rect x="1565" y="720" width="8" height="21" fill="#FF4409" rx="0" transform="matrix(-.75703 .6111 -.63178 -.81096 3094.636 640.746)"/><rect x="172" y="637" width="8" height="16" fill="#FF2828" rx="0" transform="matrix(-.91708 .17407 -.54374 -.98721 889.079 1263.423)"/><rect x="300" y="630" width="5" height="9" fill="#FF2828" rx="0" transform="matrix(.88602 .58866 -.4334 .8407 260.215 -7.157)"/><rect x="1199" y="181" width="7" height="14" fill="#F6F5FC" rx="0" transform="matrix(-.74524 .6491 -.65244 -.77357 2224.32 -616.117)"/><rect x="1563" y="741" width="8" height="9" fill="#FF4409" rx="0" transform="matrix(-.44881 .73205 -.91722 -.73205 3035.56 563.997)"/><rect x="1339" y="866" width="5" height="14" fill="#F6F5FC" rx="0" transform="matrix(-.96153 .45845 -.29415 -.89976 2864.279 854.944)"/><rect x="1657" y="837" width="5" height="5" fill="#FF2828" rx="0" transform="matrix(.69453 .98737 -.74618 .37902 1207.283 -545.82)"/><rect x="1166" y="224" width="6" height="6" fill="#FDA829" rx="0" transform="matrix(-.88629 .54472 -.47103 -.8388 2285.994 -198.968)"/><rect x="1422" y="290" width="6" height="7" fill="#FDA829" rx="0" transform="matrix(-.2586 .96725 -.96456 -.25917 2057.314 -934.085)"/><rect x="726" y="532" width="6" height="10" fill="#FF2828" rx="0" transform="matrix(.45338 .90003 -.88995 .43897 856.302 -316.643)"/><rect x="891" y="894" width="7" height="16" fill="#F6F5FC" rx="0" transform="matrix(-.5927 .52468 -.91952 -.87321 2562.575 1394.185)"/><rect x="1084" y="317" width="5" height="5" fill="#F6F5FC" rx="0" transform="matrix(-.35051 .82416 -.9587 -.59879 1820.066 -173.442)"/><rect x="184" y="245" width="7" height="20" fill="#FDA829" rx="0" transform="matrix(.76783 1.03051 -.79312 .23791 319.554 65.672)"/><rect x="1277" y="702" width="9" height="26" fill="#FF2828" rx="0" transform="matrix(-.2306 .8834 -.99342 -.5308 2359.648 281.952)"/><rect x="798" y="709" width="8" height="15" fill="#FDA829" rx="0" transform="matrix(.50583 .93372 -.87681 .35842 1127.222 -275.156)"/><rect x="1237" y="634" width="5" height="12" fill="#FF2828" rx="0" transform="matrix(-.86551 .24933 -.5394 -1 2723.882 1280)"/><rect x="1520" y="131" width="7" height="11" fill="#FDA829" rx="0" transform="matrix(.97758 .12187 -.24374 .99255 50.663 -184.65)"/><rect x="571" y="440" width="9" height="19" fill="#FDA829" rx="0" transform="matrix(-.5092 .95236 -.88457 -.30944 1199.746 10.349)"/><rect x="1381" y="857" width="6" height="15" fill="#FF4409" rx="0" transform="matrix(-.5575 .82228 -.82576 -.57577 2800.533 345.298)"/><rect x="228" y="291" width="5" height="7" fill="#F6F5FC" rx="0" transform="matrix(1.02115 .08728 .21382 .99756 8.594 -7.319)"/><rect x="1359" y="250" width="9" height="15" fill="#FF2828" rx="0" transform="matrix(-.83976 .78683 -.5909 -.63716 2655.562 -867.234)"/><rect x="1589" y="800" width="9" height="10" fill="#F6F5FC" rx="0" transform="matrix(.74476 .61576 -.67077 .78813 873.825 -782.837)"/><rect x="1771" y="481" width="8" height="8" fill="#FDA829" rx="0" transform="matrix(.8713 .98872 -.7114 .34044 868.156 -892.423)"/><rect x="329" y="392" width="6" height="16" fill="#F6F5FC" rx="0" transform="matrix(-.8447 .48748 -.52749 -.87944 800.643 624.826)"/><rect x="647" y="133" width="9" height="23" fill="#FDA829" rx="0" transform="matrix(.1741 1.01247 -.98769 0 685.114 -411.934)"/><rect x="746" y="94" width="5" height="13" fill="#FF4409" rx="0" transform="matrix(-.97882 .32601 -.22465 -.94682 1481.593 -9.14)"/><rect x="1353" y="333" width="8" height="22" fill="#F6F5FC" rx="0" transform="matrix(.13909 .99146 -.98658 .15703 1523.398 -1174.154)"/><rect x="1016" y="366" width="7" height="15" fill="#F6F5FC" rx="0" transform="matrix(1.006 .37902 -.01766 .98737 13.121 -30.65)"/><rect x="1274" y="872" width="5" height="5" fill="#FDA829" rx="0" transform="matrix(-.15691 .99497 -.98579 -.12217 2237.575 -199.482)"/><rect x="348" y="18" width="9" height="14" fill="#FF2828" rx="0" transform="matrix(-.17423 .85828 -1.0476 -.57892 461.169 -168.62)"/><rect x="455" y="167" width="8" height="19" fill="#FF4409" rx="0" transform="matrix(-.49606 .75482 -.89359 -.65616 880.278 -46.14)"/><rect x="1266" y="465" width="9" height="10" fill="#F6F5FC" rx="0" transform="matrix(-.80932 .33553 -.6299 -.97446 2663.618 818.472)"/><rect x="702" y="645" width="9" height="25" fill="#FDA829" rx="0" transform="matrix(.3209 1.00229 -1.00332 -.0175 1328.88 10.289)"/><rect x="488" y="439" width="5" height="10" fill="#FDA829" rx="0" transform="matrix(.8111 .53652 -.56581 .85862 382.378 -278.08)"/><rect x="462" y="61" width="6" height="10" fill="#F6F5FC" rx="0" transform="matrix(-.4731 .84912 -.87045 -.55143 740.673 -366.098)"/><rect x="1127" y="463" width="5" height="10" fill="#FF2828" rx="0" transform="matrix(-.68766 .5568 -.73705 -.8574 2275.88 480.436)"/><rect x="1852" y="926" width="6" height="10" fill="#F6F5FC" rx="0" transform="matrix(-.20953 .92764 -.98472 -.41301 3204.38 -78.17)"/><rect x="304" y="485" width="5" height="5" fill="#FF2828" rx="0" transform="matrix(.7071 .87036 -.7071 .54386 434.486 26.366)"/><rect x="1360" y="369" width="8" height="15" fill="#F6F5FC" rx="0" transform="matrix(-.9289 .21428 -.2967 -1.0081 2642.027 803.857)"/><rect x="1313" y="234" width="8" height="18" fill="#FF2828" rx="0" transform="matrix(-.57185 .91266 -.81679 -.44513 2268.8 -1083.028)"/><rect x="1233" y="537" width="6" height="6" fill="#F6F5FC" rx="0" transform="matrix(.98976 .03524 -.03181 1.00921 81.313 -222.243)"/><rect x="906" y="735" width="7" height="16" fill="#FDA829" rx="0" transform="matrix(-.9234 .37604 -.3738 -.93073 2085.113 1012.952)"/><rect x="1240" y="647" width="7" height="12" fill="#FF2828" rx="0" transform="matrix(-.3516 1.00921 -.9786 -.03524 2235.41 -753.705)"/><rect x="207" y="97" width="5" height="7" fill="#FF2828" rx="0" transform="matrix(.54323 .85012 -.83686 .53121 173.762 -116.337)"/><rect x="1269" y="353" width="5" height="5" fill="#FF4409" rx="0" transform="matrix(-.99985 0 -.17586 -1.00015 2665.146 733.248)"/><rect x="589" y="161" width="8" height="22" fill="#FDA829" rx="0" transform="matrix(.4941 .97318 -.89517 .26076 484.027 -377.136)"/><rect x="511" y="285" width="8" height="19" fill="#FF2828" rx="0" transform="matrix(.8313 .81013 -.6304 .5886 352.684 -269.066)"/><rect x="1051" y="26" width="6" height="14" fill="#FF2828" rx="0" transform="matrix(.34007 .99817 -.97805 .0698 726.677 -1058.183)"/><rect x="1361" y="914" width="8" height="11" fill="#FF2828" rx="0" transform="matrix(-.93293 .1099 -.22235 -1.0457 2602.558 2174.515)"/><rect x="1615" y="665" width="8" height="15" fill="#FDA829" rx="0" transform="matrix(1.06697 .44384 -.06548 .91 167.228 -401.619)"/><rect x="57" y="639" width="6" height="14" fill="#FF4409" rx="0" transform="matrix(-.05971 1.0298 -.96053 -.18158 566.942 719.858)"/><rect x="1009" y="460" width="7" height="16" fill="#F6F5FC" rx="0" transform="matrix(-.96861 .07014 -.40522 -1.00306 2315.481 972.832)"/><rect x="1619" y="65" width="7" height="18" fill="#FF2828" rx="0" transform="matrix(-.58779 .7576 -.80902 -.65857 2636.049 -964.51)"/><rect x="689" y="419" width="5" height="6" fill="#F6F5FC" rx="0" transform="matrix(.61653 1.01472 -.9098 .1246 812.252 -185.274)"/><rect x="821" y="386" width="8" height="10" fill="#F6F5FC" rx="0" transform="matrix(.73702 .77026 -.67982 .64633 553.017 -583.893)"/><rect x="1043" y="698" width="7" height="20" fill="#F6F5FC" rx="0" transform="matrix(-.11918 .89395 -1.05526 -.47532 2120.067 274.756)"/><rect x="1492" y="765" width="6" height="10" fill="#FDA829" rx="0" transform="matrix(.17416 .9922 -.97715 .17495 2059.035 -1031.62)"/><rect x="793" y="682" width="6" height="13" fill="#F6F5FC" rx="0" transform="matrix(.52992 .80169 -.84805 .60411 958.065 -435.216)"/><rect x="1129" y="651" width="5" height="7" fill="#FF4409" rx="0" transform="matrix(-.71934 .73236 -.69466 -.68293 2400.087 213.519)"/><rect x="754" y="238" width="7" height="18" fill="#F6F5FC" rx="0" transform="matrix(.26619 1.00183 -1.00747 -.03498 873.959 -450.276)"/><rect x="729" y="296" width="8" height="21" fill="#F6F5FC" rx="0" transform="matrix(-.97153 .07083 -.22424 -1.01295 1506.257 694.298)"/><rect x="1606" y="788" width="8" height="20" fill="#FF4409" rx="0" transform="matrix(-.48621 .92275 -.87733 -.39169 3068.977 -487.65)"/><rect x="956" y="620" width="5" height="10" fill="#FF2828" rx="0" transform="matrix(-.8958 .09114 -.7333 -1.04171 2591.545 1481.757)"/><rect x="1442" y="416" width="9" height="19" fill="#FDA829" rx="0" transform="matrix(.45112 1.01112 -.9336 .12415 1290.52 -808.745)"/><rect x="904" y="559" width="6" height="13" fill="#F6F5FC" rx="0" transform="matrix(-.9021 .39288 -.42009 -.92558 1916.548 827.897)"/><rect x="602" y="22" width="8" height="19" fill="#F6F5FC" rx="0" transform="matrix(-.58431 .69466 -.83448 -.71934 992.502 -366.804)"/><rect x="1329" y="737" width="8" height="21" fill="#FF4409" rx="0" transform="matrix(-.2642 .96573 -.94964 -.31378 2503.963 -540.306)"/><rect x="26" y="143" width="9" height="23" fill="#FF4409" rx="0" transform="matrix(.936 .8086 -.5314 .60932 126.745 40.53)"/><rect x="1699" y="160" width="8" height="14" fill="#FF4409" rx="0" transform="matrix(-.72917 .32682 -.81562 -1.00586 3241.118 364.789)"/><rect x="636" y="689" width="5" height="5" fill="#FDA829" rx="0" transform="matrix(1.00518 .01745 .28823 .99985 8.79 -11.038)"/><rect x="646" y="221" width="8" height="14" fill="#FF4409" rx="0" transform="matrix(.23055 .99069 -1.0755 -.28408 849.872 -189.116)"/><rect x="734" y="989" width="5" height="6" fill="#FDA829" rx="0" transform="matrix(-1.00324 -.01746 -.21192 -1.00046 1883.439 2023.034)"/><rect x="545" y="925" width="9" height="19" fill="#FF4409" rx="0" transform="matrix(-.99452 .15665 -.10453 -.98904 1193.672 1743.885)"/><rect x="1773" y="546" width="8" height="23" fill="#FDA829" rx="0" transform="matrix(-.54637 .77904 -.84118 -.63086 3240.669 -350.898)"/><rect x="1452" y="108" width="7" height="17" fill="#F6F5FC" rx="0" transform="matrix(-.71277 .40648 -.78099 -.9576 2668.471 53.79)"/><rect x="993" y="239" width="8" height="22" fill="#FF2828" rx="0" transform="matrix(.99462 .07063 .06466 1.01 15.603 -230.823)"/><rect x="676" y="704" width="9" height="20" fill="#F6F5FC" rx="0" transform="matrix(-.63228 .43753 -.92965 -.93828 2048.573 1268.534)"/><rect x="439" y="263" width="6" height="17" fill="#FF2828" rx="0" transform="matrix(-.07507 .94522 -1.02914 -.36284 802.588 22.23)"/><rect x="10" y="155" width="6" height="7" fill="#FF2828" rx="0" transform="matrix(1.08373 .82193 -.33907 .66558 99.386 46.796)"/><rect x="961" y="172" width="6" height="15" fill="#FDA829" rx="0" transform="matrix(-.87095 .39457 -.48258 -.92955 1879.215 101.47)"/><rect x="1461" y="785" width="9" height="9" fill="#FDA829" rx="0" transform="matrix(.93 .36284 -.33333 .94522 464.03 -720.596)"/><rect x="1701" y="725" width="9" height="23" fill="#FF4409" rx="0" transform="matrix(-1.05093 -.18365 -.51507 -1.04155 4333.006 2404.076)"/><rect x="1211" y="175" width="7" height="15" fill="#FF4409" rx="0" transform="matrix(1.01452 .17431 .01675 .98857 9.664 -103.36)"/><rect x="537" y="911" width="8" height="15" fill="#FF4409" rx="0" transform="matrix(.66413 .91578 -.79628 .40773 1116.367 86.396)"/><rect x="1811" y="276" width="9" height="18" fill="#FF2828" rx="0" transform="matrix(.3537 .99023 -.9475 .1746 1470.399 -1753.346)"/><rect x="1782" y="507" width="9" height="21" fill="#FF4409" rx="0" transform="matrix(-.79613 .3148 -.72637 -.96886 3800.295 803.752)"/><rect x="1914" y="323" width="8" height="16" fill="#FF2828" rx="0" transform="matrix(.6395 .87475 -.7887 .48488 1010.317 -1540.751)"/><rect x="190" y="245" width="7" height="11" fill="#FDA829" rx="0" transform="matrix(.39033 .90099 -.91951 .43944 352.445 -47.452)"/><rect x="385" y="546" width="5" height="8" fill="#FF4409" rx="0" transform="matrix(1.02807 .19127 .06091 .98402 125.522 -92.429)"/><rect x="15" y="28" width="7" height="17" fill="#FF2828" rx="0" transform="matrix(.97815 .47 -.20791 .92244 7.993 -.907)"/><rect x="1479" y="680" width="5" height="10" fill="#FDA829" rx="0" transform="matrix(-.2241 .9707 -.96592 -.27835 2397.01 -354.226)"/><rect x="1444" y="207" width="9" height="9" fill="#FF4409" rx="0" transform="matrix(-.43192 .78597 -.88342 -.70769 2223.758 -278.537)"/><rect x="1207" y="299" width="9" height="15" fill="#F6F5FC" rx="0" transform="matrix(-.9703 0 -.15175 -1.03061 2380.284 924.444)"/><rect x="496" y="886" width="7" height="11" fill="#F6F5FC" rx="0" transform="matrix(-.79972 .67076 -.60266 -.74496 1421.278 1185.656)"/><rect x="403" y="702" width="5" height="11" fill="#FF2828" rx="0" transform="matrix(-.0704 1.0042 -.97956 -.23184 1056.347 565.425)"/><rect x="1076" y="617" width="7" height="19" fill="#FDA829" rx="0" transform="matrix(-.7098 .53513 -.7328 -.85638 2386.62 737.068)"/><rect x="232" y="871" width="8" height="13" fill="#FDA829" rx="0" transform="matrix(.34 1.0032 -1.00868 -.03503 1298.412 692.131)"/><rect x="1485" y="479" width="5" height="7" fill="#FF2828" rx="0" transform="matrix(.96183 .74472 -.41397 .71916 380.343 -573.686)"/><rect x="1047" y="424" width="9" height="17" fill="#FDA829" rx="0" transform="matrix(.70264 .86635 -.66227 .60663 501.543 -378.775)"/><rect x="573" y="380" width="8" height="9" fill="#FF2828" rx="0" transform="matrix(-.62874 .67282 -.788 -.74724 1329.546 222.953)"/><rect x="102" y="584" width="5" height="6" fill="#FDA829" rx="0" transform="matrix(.88175 .40829 -.4688 .91704 297.631 -3.108)"/><rect x="674" y="815" width="9" height="17" fill="#F6F5FC" rx="0" transform="matrix(.98935 -.05262 .12472 1.00413 37.15 -39.009)"/><rect x="191" y="149" width="7" height="10" fill="#F6F5FC" rx="0" transform="matrix(.75247 .93395 -.7357 .41582 195.887 -50.349)"/><rect x="1708" y="529" width="6" height="6" fill="#F6F5FC" rx="0" transform="matrix(-.40966 .95236 -.91692 -.30944 2801.261 -843.198)"/><rect x="309" y="638" width="8" height="18" fill="#FF2828" rx="0" transform="matrix(.84676 .36034 -.56925 .93872 340.867 -106.038)"/><rect x="593" y="69" width="6" height="12" fill="#FF4409" rx="0" transform="matrix(.11427 1.03967 -.96584 -.0363 570.142 -371.018)"/><rect x="1006" y="836" width="9" height="15" fill="#FF4409" rx="0" transform="matrix(-.21184 .82193 -1.04511 -.66558 2294.821 922.306)"/><rect x="997" y="836" width="5" height="9" fill="#FF2828" rx="0" transform="matrix(-.8708 .58779 -.50275 -.80902 2204.085 932.987)"/><rect x="1489" y="931" width="7" height="17" fill="#FDA829" rx="0" transform="matrix(-.98769 0 -.26285 -1.01247 3337.162 2127.1)"/><rect x="1317" y="870" width="7" height="11" fill="#FF4409" rx="0" transform="matrix(-.51362 .83106 -.85684 -.56056 2845.057 176.513)"/><rect x="1474" y="525" width="6" height="11" fill="#FF2828" rx="0" transform="matrix(-.98359 .4073 -.24604 -.9148 3004.656 336.82)"/><rect x="486" y="622" width="7" height="18" fill="#FF4409" rx="0" transform="matrix(.10531 .98721 -1.03152 -.17407 1230.24 291.828)"/><rect x="1702" y="717" width="6" height="6" fill="#FDA829" rx="0" transform="matrix(-.1582 .94566 -1.00299 -.32562 2831.053 -687.67)"/><rect x="266" y="922" width="5" height="11" fill="#FF4409" rx="0" transform="matrix(.12173 .98538 -.99118 .19154 1170.914 461.784)"/><rect x="1894" y="871" width="9" height="15" fill="#F6F5FC" rx="0" transform="matrix(-.97437 0 -.24287 -1.0263 3984.684 2218.411)"/><rect x="1179" y="380" width="9" height="11" fill="#FF4409" rx="0" transform="matrix(-.00148 1.01314 -.98688 -.10648 1511.842 -542.448)"/><rect x="209" y="719" width="7" height="13" fill="#FDA829" rx="0" transform="matrix(.5228 1.01757 -.87161 .21629 774.975 413.282)"/><rect x="1680" y="403" width="9" height="24" fill="#FF2828" rx="0" transform="matrix(-.9048 .20947 -.51713 -.9855 3544.118 677.953)"/><rect x="1056" y="638" width="9" height="25" fill="#F6F5FC" rx="0" transform="matrix(-.85446 .32736 -.5732 -.95073 2460.202 1033.244)"/><rect x="1394" y="910" width="5" height="5" fill="#FF4409" rx="0" transform="matrix(-.99452 -.18065 -.10453 -1.0245 2880.732 2500.064)"/><rect x="90" y="16" width="7" height="12" fill="#FF2828" rx="0" transform="matrix(-.93117 .26366 -.31755 -.984 182.617 37.17)"/><rect x="450" y="464" width="6" height="10" fill="#F6F5FC" rx="0" transform="matrix(-.99236 -.0719 -.2817 -1.0281 1095.826 1096.693)"/><rect x="1987" y="207" width="7" height="11" fill="#FDA829" rx="0" transform="matrix(.18933 .95864 -.98526 .29309 1760.986 -1618.764)"/><rect x="33" y="831" width="8" height="16" fill="#FF4409" rx="0" transform="matrix(.97296 .37466 -.2609 .92733 308.148 47.758)"/><rect x="981" y="892" width="8" height="14" fill="#FDA829" rx="0" transform="matrix(1.00664 .25898 -.1045 .96651 255.462 -259.386)"/><rect x="1802" y="850" width="6" height="15" fill="#FF4409" rx="0" transform="matrix(-.85652 .73685 -.55842 -.68712 3751.784 -104.928)"/><rect x="1884" y="676" width="8" height="23" fill="#FF4409" rx="0" transform="matrix(-.34155 .89657 -.93376 -.47671 3283.22 -1010.386)"/><rect x="609" y="478" width="6" height="15" fill="#FF4409" rx="0" transform="matrix(.95806 .20995 -.2556 .98776 184.712 -208.561)"/><rect x="544" y="892" width="5" height="8" fill="#FF4409" rx="0" transform="matrix(.56805 .9614 -.87725 .27568 1281.74 133.121)"/><rect x="1457" y="599" width="5" height="6" fill="#FF2828" rx="0" transform="matrix(.86994 .58922 -.49979 .811 578.848 -848.243)"/><rect x="709" y="726" width="6" height="10" fill="#FDA829" rx="0" transform="matrix(-.74666 .7436 -.67252 -.66954 1685.854 666.127)"/><rect x="450" y="661" width="9" height="16" fill="#F6F5FC" rx="0" transform="matrix(-1.02819 .29398 -.03851 -.96157 849.183 1130.907)"/><rect x="1295" y="953" width="6" height="17" fill="#F6F5FC" rx="0" transform="matrix(-.03627 .9761 -1.0141 -.27989 2403.373 192.52)"/><rect x="1780" y="486" width="9" height="24" fill="#FF4409" rx="0" transform="matrix(1.0363 .50435 -.11323 .90987 115.595 -343.424)"/><rect x="1615" y="419" width="5" height="7" fill="#F6F5FC" rx="0" transform="matrix(1.01726 -.14054 -.12278 1 0 0)"/><rect x="1500" y="408" width="8" height="17" fill="#FF4409" rx="0" transform="matrix(-.86371 .7756 -.5646 -.6508 3013.12 -717.144)"/><rect x="716" y="797" width="8" height="18" fill="#FF2828" rx="0" transform="matrix(-.06592 .90547 -1.06786 -.50191 1822.324 751.524)"/><rect x="983" y="277" width="7" height="8" fill="#FDA829" rx="0" transform="matrix(-.5868 .93715 -.84182 -.35974 1771.093 -628.717)"/><rect x="109" y="652" width="7" height="15" fill="#F6F5FC" rx="0" transform="matrix(1.08924 .38782 .11746 .9599 84.444 12.966)"/><rect x="231" y="71" width="6" height="10" fill="#FF2828" rx="0" transform="matrix(-.0437 .9974 -.9957 -.15797 330.646 -178.271)"/><rect x="1030" y="478" width="6" height="15" fill="#FF4409" rx="0" transform="matrix(1.06316 .32492 .19438 1 0 0)"/><rect x="43" y="981" width="5" height="12" fill="#FDA829" rx="0" transform="matrix(.67006 .68366 -.74415 .73314 732.316 229.103)"/><rect x="122" y="187" width="5" height="14" fill="#FF2828" rx="0" transform="matrix(.49655 .97564 -.90116 .24325 270.305 38.427)"/><rect x="186" y="205" width="5" height="8" fill="#FF2828" rx="0" transform="matrix(-.05234 1.00786 -.99863 .12375 407.079 -40.082)"/><rect x="469" y="876" width="7" height="10" fill="#FF2828" rx="0" transform="matrix(.914 .87971 -.58755 .52859 805.123 108.736)"/><rect x="603" y="109" width="5" height="7" fill="#FF2828" rx="0" transform="matrix(1.0074 .12189 .00034 .9927 9.807 -83.55)"/><rect x="599" y="576" width="5" height="5" fill="#FF2828" rx="0" transform="matrix(.73054 .76936 -.642 .69273 429.519 -123.846)"/><rect x="498" y="848" width="8" height="14" fill="#FF2828" rx="0" transform="matrix(-.9773 -.17977 .02 -1.01955 871.5 1951.47)"/><rect x="1754" y="902" width="7" height="19" fill="#FF4409" rx="0" transform="matrix(1.00662 .1397 .00454 .99405 159.156 -393.87)"/><rect x="1866" y="616" width="6" height="12" fill="#FF2828" rx="0" transform="matrix(.0713 .9707 -1.00973 .27835 2338.677 -1628.056)"/><rect x="1482" y="882" width="6" height="10" fill="#F6F5FC" rx="0" transform="matrix(.682 .68366 -.73135 .73314 1120.943 -882.377)"/><rect x="436" y="368" width="6" height="12" fill="#FF2828" rx="0" transform="matrix(-.86223 .17896 -.69777 -1.01496 1217.113 784.483)"/><rect x="1565" y="409" width="9" height="26" fill="#FF2828" rx="0" transform="matrix(.91264 .73415 -.51108 .6846 481.92 -881.833)"/><rect x="1864" y="242" width="5" height="10" fill="#FDA829" rx="0" transform="matrix(.08047 .9363 -1.10055 -.37829 2163.51 -1144.84)"/><rect x="19" y="350" width="9" height="18" fill="#FDA829" rx="0" transform="matrix(.99313 .68712 -.39035 .73685 237.263 81.21)"/><rect x="301" y="495" width="9" height="12" fill="#FDA829" rx="0" transform="matrix(1.01967 .65808 -.2604 .81266 207.986 -13.781)"/><rect x="226" y="748" width="7" height="18" fill="#FDA829" rx="0" transform="matrix(1.03227 .47012 -.1857 .88416 339.235 -8.173)"/><rect x="988" y="265" width="8" height="21" fill="#F6F5FC" rx="0" transform="matrix(-.06976 .97756 -.99756 -.3558 1336.027 -311.766)"/><rect x="1930" y="747" width="6" height="12" fill="#FF2828" rx="0" transform="matrix(.92037 .27631 -.4094 .9636 419 -641.874)"/><rect x="1607" y="774" width="7" height="10" fill="#FF4409" rx="0" transform="matrix(.6625 .83867 -.76213 .54464 1246.711 -995.953)"/><rect x="1731" y="200" width="8" height="19" fill="#FF4409" rx="0" transform="matrix(-.20102 .73469 -1.15297 -.76079 2603.154 -308.385)"/><rect x="721" y="552" width="7" height="19" fill="#F6F5FC" rx="0" transform="matrix(.5123 .84497 -.85079 .54873 872.4 -447.749)"/><rect x="1560" y="138" width="9" height="18" fill="#F6F5FC" rx="0" transform="matrix(-.9951 .01748 -.21047 -1.00122 3184.468 348.83)"/><rect x="1782" y="150" width="5" height="13" fill="#FF2828" rx="0" transform="matrix(.89838 .45427 -.43818 .89155 246.1 -731.351)"/><rect x="1870" y="102" width="5" height="11" fill="#FF4409" rx="0" transform="matrix(.53123 .88349 -.84942 .46976 973.512 -1662.715)"/><rect x="352" y="346" width="6" height="14" fill="#FDA829" rx="0" transform="matrix(-.97208 .44005 -.27943 -.90223 770.562 484.212)"/><rect x="980" y="964" width="5" height="14" fill="#F6F5FC" rx="0" transform="matrix(.08219 .96056 -1.07765 -.42767 2198.95 761.75)"/><rect x="1731" y="874" width="5" height="9" fill="#FDA829" rx="0" transform="matrix(1.01758 .34223 -.12625 .94027 262.966 -480.241)"/><rect x="652" y="313" width="5" height="7" fill="#FDA829" rx="0" transform="matrix(.90014 .81266 -.50162 .65808 269.32 -223.563)"/><rect x="177" y="815" width="8" height="16" fill="#F6F5FC" rx="0" transform="matrix(.53007 .86655 -.84796 .5003 840.04 248.082)"/><rect x="312" y="622" width="8" height="21" fill="#FF4409" rx="0" transform="matrix(-.76013 .5332 -.61038 -.8874 854.208 1109.962)"/><rect x="261" y="373" width="8" height="17" fill="#FF4409" rx="0" transform="matrix(-.77286 .517 -.64795 -.86044 745.302 595.937)"/><rect x="146" y="737" width="7" height="8" fill="#FDA829" rx="0" transform="matrix(-.40702 .9363 -.9036 -.37829 745.548 902.346)"/><rect x="891" y="468" width="9" height="22" fill="#FF2828" rx="0" transform="matrix(-.78055 .51788 -.63191 -.86189 1917.183 522.208)"/><rect x="1184" y="938" width="5" height="9" fill="#FF2828" rx="0" transform="matrix(.9893 .67282 -.38756 .74724 663.934 -435.363)"/><rect x="889" y="518" width="5" height="5" fill="#FF2828" rx="0" transform="matrix(.99516 .39676 -.17597 .9347 131.418 -162.529)"/><rect x="1799" y="684" width="7" height="11" fill="#FF4409" rx="0" transform="matrix(.89476 .24494 -.49398 .9824 487.832 -714.846)"/><rect x="485" y="298" width="8" height="21" fill="#FDA829" rx="0" transform="matrix(-.95875 .03597 -.34766 -1.02999 1095.178 730.584)"/><rect x="1569" y="822" width="5" height="13" fill="#F6F5FC" rx="0" transform="matrix(.5066 1.00786 -.93 .12375 1780.888 -580.777)"/><rect x="977" y="497" width="6" height="14" fill="#F6F5FC" rx="0" transform="matrix(-.96441 .12187 -.35102 -.99255 2218.392 884.811)"/><rect x="231" y="359" width="6" height="6" fill="#FDA829" rx="0" transform="matrix(-.98769 0 -.01414 -1.01247 414.154 765.574)"/><rect x="851" y="950" width="6" height="9" fill="#FDA829" rx="0" transform="matrix(-.55327 .55143 -.9615 -.84912 2619.489 1429.33)"/><rect x="684" y="491" width="5" height="11" fill="#FDA829" rx="0" transform="matrix(-.89007 .45965 -.42872 -.90211 1403.67 737.58)"/><rect x="120" y="568" width="7" height="11" fill="#FDA829" rx="0" transform="matrix(-.8979 .12744 -.53417 -1.0379 615.792 1190.753)"/><rect x="1459" y="952" width="9" height="10" fill="#F6F5FC" rx="0" transform="matrix(.9097 .29242 -.44429 .95645 384.085 -360.729)"/><rect x="1019" y="492" width="9" height="17" fill="#F6F5FC" rx="0" transform="matrix(-.14954 .79307 -1.13544 -.66546 2011.614 296.105)"/><rect x="1112" y="184" width="5" height="5" fill="#FF2828" rx="0" transform="matrix(.0171 .99269 -1.00977 -.13951 1306.908 -815.896)"/><rect x="974" y="373" width="7" height="7" fill="#FF2828" rx="0" transform="matrix(1.02204 .57498 -.27958 .82115 211.277 -426.35)"/><rect x="1780" y="882" width="9" height="16" fill="#FF4409" rx="0" transform="matrix(-.52578 .84329 -.84439 -.54764 3560.504 -315.011)"/><rect x="1714" y="759" width="9" height="15" fill="#FF4409" rx="0" transform="matrix(.75762 .9514 -.77532 .34628 1308.652 -861.734)"/><rect x="1125" y="859" width="7" height="20" fill="#FDA829" rx="0" transform="matrix(-.90386 .31287 -.41445 -.96291 2693.61 1173.96)"/><rect x="1719" y="91" width="9" height="18" fill="#FF4409" rx="0" transform="matrix(.95346 .47126 -.32875 .88632 130.626 -650.07)"/><rect x="1511" y="749" width="8" height="18" fill="#FF2828" rx="0" transform="matrix(1.00784 .38446 -.10656 .95157 126.958 -195.984)"/><rect x="995" y="154" width="8" height="19" fill="#FF2828" rx="0" transform="matrix(-.10468 1 -.99634 -.03492 1261.984 -864.676)"/><rect x="224" y="313" width="8" height="20" fill="#FF2828" rx="0" transform="matrix(.92622 .27602 -.39288 .96258 121.971 -62.794)"/><rect x="1955" y="282" width="6" height="9" fill="#FF2828" rx="0" transform="matrix(.60329 1.04123 -.87562 .14634 1173.771 -1157.96)"/><rect x="55" y="977" width="5" height="10" fill="#FF2828" rx="0" transform="matrix(.78008 .69994 -.59216 .7506 471.943 217.948)"/><rect x="876" y="294" width="6" height="7" fill="#FF2828" rx="0" transform="matrix(.33245 .84912 -.96179 .55143 859.063 -752.15)"/><rect x="606" y="149" width="5" height="9" fill="#FF2828" rx="0" transform="matrix(-.64279 .84497 -.76604 -.54873 1117.224 -351.148)"/><rect x="225" y="353" width="7" height="20" fill="#FF2828" rx="0" transform="matrix(-.05336 .96788 -1.01054 -.41084 622.787 365.219)"/><rect x="1388" y="311" width="9" height="24" fill="#F6F5FC" rx="0" transform="matrix(.96846 .5592 -.3525 .82904 238.307 -723.455)"/><rect x="1550" y="206" width="7" height="16" fill="#FF2828" rx="0" transform="matrix(.21923 .88119 -1.01331 .48845 1425.675 -1450.2)"/><rect x="1741" y="447" width="9" height="12" fill="#FF4409" rx="0" transform="matrix(.87298 .5163 -.484 .85926 420.887 -715.382)"/><rect x="579" y="387" width="5" height="14" fill="#FF2828" rx="0" transform="matrix(1.03197 .2105 .10452 .99034 17.22 -26.501)"/><rect x="101" y="616" width="6" height="11" fill="#FDA829" rx="0" transform="matrix(-.97852 -.0719 -.0837 -1.0281 201.143 1293.873)"/><rect x="1473" y="238" width="5" height="11" fill="#F6F5FC" rx="0" transform="matrix(-.65999 .62334 -.75953 -.79783 2637.632 -715.656)"/><rect x="495" y="509" width="8" height="21" fill="#FF2828" rx="0" transform="matrix(-.94085 .24565 -.29722 -.98526 1222.514 820.776)"/><rect x="60" y="679" width="8" height="20" fill="#FDA829" rx="0" transform="matrix(-.03492 1 -.99258 -.21256 725.585 785.055)"/><rect x="1526" y="738" width="9" height="23" fill="#F6F5FC" rx="0" transform="matrix(1.09355 .6792 -.21433 .78133 349.966 -465.532)"/><rect x="764" y="895" width="5" height="13" fill="#F6F5FC" rx="0" transform="matrix(1.06706 .65808 -.20187 .81266 372.015 -101.18)"/><rect x="1203" y="227" width="8" height="10" fill="#FF4409" rx="0" transform="matrix(.64987 .95996 -.84303 .29349 714.994 -889.16)"/><rect x="355" y="485" width="9" height="22" fill="#FF4409" rx="0" transform="matrix(.99866 -.07063 -.12243 1.01 45.872 -36.509)"/><rect x="1147" y="864" width="5" height="10" fill="#F6F5FC" rx="0" transform="matrix(-.10615 .96607 -1.00668 -.25886 2271.27 3.512)"/><rect x="1812" y="619" width="8" height="14" fill="#FF2828" rx="0" transform="matrix(-.96497 -.01816 -.2043 -1.04014 3636.192 1830.829)"/><rect x="839" y="140" width="8" height="9" fill="#FF4409" rx="0" transform="matrix(-.9181 .1769 -.44614 -1.00324 1708.407 304.206)"/><rect x="903" y="468" width="8" height="16" fill="#FF2828" rx="0" transform="matrix(.65353 .8151 -.75203 .5922 651.7 -433.81)"/><rect x="307" y="312" width="8" height="15" fill="#FF4409" rx="0" transform="matrix(.81203 .51512 -.58987 .8573 224.96 -120.036)"/><rect x="1850" y="478" width="8" height="17" fill="#F6F5FC" rx="0" transform="matrix(-.82361 .56782 -.54007 -.84183 3668.996 -483.599)"/><rect x="655" y="47" width="5" height="14" fill="#FDA829" rx="0" transform="matrix(-.2532 .95262 -.96255 -.32801 870.761 -635.365)"/><rect x="646" y="300" width="5" height="8" fill="#FF2828" rx="0" transform="matrix(-.42902 .79783 -.9182 -.62334 1234.294 78.811)"/><rect x="1480" y="644" width="5" height="14" fill="#FF4409" rx="0" transform="matrix(-.19815 .95481 -.9791 -.32877 2532.258 -758.83)"/><rect x="827" y="892" width="8" height="13" fill="#FF2828" rx="0" transform="matrix(.88716 .29309 -.5102 .95864 419.081 -264.501)"/><rect x="392" y="559" width="5" height="6" fill="#FF4409" rx="0" transform="matrix(.29982 .8708 -.97528 .50275 760.414 -105.54)"/><rect x="1324" y="156" width="6" height="13" fill="#FF4409" rx="0" transform="matrix(.905 .21112 -.479 .99324 211.423 -513.042)"/><rect x="1849" y="191" width="8" height="20" fill="#F6F5FC" rx="0" transform="matrix(1.01578 .13936 .0522 .99163 2.16 -159.447)"/><rect x="1063" y="567" width="9" height="20" fill="#F6F5FC" rx="0" transform="matrix(.45026 .96828 -.9121 .25945 1247.739 -680.994)"/><rect x="772" y="498" width="5" height="14" fill="#FDA829" rx="0" transform="matrix(-.05234 .99801 -1.00842 .12254 1294.663 -411.248)"/><rect x="28" y="934" width="6" height="6" fill="#FF2828" rx="0" transform="matrix(.40975 .95073 -.91074 .32736 1053.16 597.532)"/><rect x="1304" y="896" width="8" height="10" fill="#FDA829" rx="0" transform="matrix(.37742 .87462 -.93415 .48481 1545.372 -679.816)"/><rect x="1936" y="730" width="7" height="16" fill="#F6F5FC" rx="0" transform="matrix(.76393 .53024 -.66338 .84857 865.132 -984.375)"/><rect x="1171" y="531" width="6" height="13" fill="#FF2828" rx="0" transform="matrix(-.87197 .12814 -.70226 -1.04362 2821.392 1329.466)"/><rect x="76" y="256" width="8" height="13" fill="#FF4409" rx="0" transform="matrix(.88458 .40698 -.4703 .9141 123.616 -12.804)"/><rect x="254" y="844" width="6" height="7" fill="#FF4409" rx="0" transform="matrix(.54298 .89763 -.81307 .49756 679.087 254.46)"/><rect x="491" y="220" width="8" height="21" fill="#F6F5FC" rx="0" transform="matrix(-.30508 .73541 -1.06517 -.71018 994.176 135.383)"/><rect x="927" y="498" width="9" height="21" fill="#FF2828" rx="0" transform="matrix(-.82295 .74598 -.59953 -.67169 1950.506 73.673)"/><rect x="1547" y="95" width="7" height="10" fill="#FDA829" rx="0" transform="matrix(.84269 .66834 -.52685 .76884 282.583 -711.755)"/><rect x="446" y="679" width="7" height="7" fill="#FDA829" rx="0" transform="matrix(-.59024 .57436 -.8981 -.82028 1570.885 1007.72)"/><rect x="1292" y="158" width="9" height="11" fill="#FDA829" rx="0" transform="matrix(.75802 .6757 -.63807 .75045 381.718 -653.04)"/><rect x="774" y="933" width="5" height="5" fill="#FF2828" rx="0" transform="matrix(.64922 .867 -.74773 .54176 914.206 -79.485)"/><rect x="790" y="736" width="8" height="13" fill="#FDA829" rx="0" transform="matrix(-.9068 .26136 -.44185 -.97542 1886.84 1370.816)"/><rect x="599" y="490" width="7" height="18" fill="#FF4409" rx="0" transform="matrix(.97432 .13936 -.24278 .99163 112.12 -111.364)"/><rect x="919" y="265" width="5" height="14" fill="#FF2828" rx="0" transform="matrix(-.87195 .22842 -.60103 -.9894 1980.838 493.112)"/><rect x="822" y="529" width="5" height="11" fill="#F6F5FC" rx="0" transform="matrix(1.00936 .03492 .26795 1 0 0)"/><rect x="640" y="695" width="6" height="17" fill="#FF4409" rx="0" transform="matrix(.70253 .8121 -.72095 .59003 847.89 -290.027)"/><rect x="1642" y="208" width="7" height="16" fill="#F6F5FC" rx="0" transform="matrix(.85699 .57169 -.47867 .84756 269.25 -558.02)"/><rect x="200" y="47" width="8" height="13" fill="#F6F5FC" rx="0" transform="matrix(-.14343 .92718 -1.02058 -.3746 301.2 -115.604)"/><rect x="723" y="799" width="5" height="12" fill="#FF4409" rx="0" transform="matrix(.5226 .97284 -.8377 .35409 968.339 8.562)"/><rect x="1832" y="597" width="5" height="13" fill="#F6F5FC" rx="0" transform="matrix(-.21837 .86245 -1.0122 -.58173 2964.68 -101.552)"/><rect x="1879" y="785" width="6" height="10" fill="#FF2828" rx="0" transform="matrix(-.6905 .52298 -.76293 -.87039 3921.972 825.201)"/><rect x="1842" y="925" width="6" height="7" fill="#FF4409" rx="0" transform="matrix(.99899 .05246 .00105 1.00107 99.06 -226.802)"/><rect x="1129" y="143" width="5" height="14" fill="#F6F5FC" rx="0" transform="matrix(-.9161 .7264 -.49197 -.70149 2243.45 -725.731)"/><rect x="1093" y="388" width="8" height="23" fill="#FDA829" rx="0" transform="matrix(-.01723 .99315 -1.00901 .12194 1481.037 -777.011)"/><rect x="1182" y="776" width="7" height="16" fill="#FF4409" rx="0" transform="matrix(-.31134 .9063 -.9582 -.42262 2402.082 40.905)"/><rect x="1551" y="791" width="5" height="5" fill="#FF4409" rx="0" transform="matrix(-.95733 .22526 -.29267 -.9757 3288.216 1299.198)"/><rect x="1079" y="775" width="7" height="8" fill="#FF2828" rx="0" transform="matrix(.34613 .99146 -.9538 .15703 1542.65 -321.878)"/><rect x="1150" y="574" width="5" height="9" fill="#F6F5FC" rx="0" transform="matrix(.4884 .97815 -.91853 .20791 1286.881 -669.092)"/><rect x="1557" y="475" width="8" height="14" fill="#F6F5FC" rx="0" transform="matrix(1.05808 .41301 -.04475 .92764 91.856 -334.586)"/><rect x="1985" y="95" width="6" height="13" fill="#FDA829" rx="0" transform="matrix(.20515 1 -1.01435 -.06993 1670.192 -2018.417)"/><rect x="488" y="561" width="5" height="5" fill="#FDA829" rx="0" transform="matrix(.46947 1.03549 -.88295 .18258 757.765 112.08)"/><rect x="135" y="410" width="6" height="17" fill="#FF2828" rx="0" transform="matrix(.5741 1.03996 -.90123 .1093 517.171 271.432)"/><rect x="1290" y="610" width="6" height="15" fill="#FDA829" rx="0" transform="matrix(.55364 .87036 -.803 .54386 911.48 -545.19)"/><rect x="527" y="844" width="7" height="13" fill="#FF4409" rx="0" transform="matrix(1.08318 .66834 -.25019 .76884 478.508 -54.83)"/><rect x="725" y="575" width="7" height="18" fill="#FDA829" rx="0" transform="matrix(-.98774 -.14478 -.1212 -1.03018 1505.005 1499.99)"/><rect x="204" y="265" width="7" height="9" fill="#FF4409" rx="0" transform="matrix(.487 .98297 -.92266 .19107 425.008 24.914)"/><rect x="575" y="198" width="9" height="22" fill="#FF2828" rx="0" transform="matrix(-.9824 .08716 -.24494 -.9962 1233.09 366.698)"/><rect x="344" y="903" width="8" height="21" fill="#FF2828" rx="0" transform="matrix(.73488 .75887 -.67893 .65967 898.865 10.227)"/><rect x="1868" y="509" width="6" height="15" fill="#F6F5FC" rx="0" transform="matrix(.97917 .07028 -.2259 1.00506 145.634 -363.836)"/><rect x="1388" y="748" width="6" height="14" fill="#FF2828" rx="0" transform="matrix(-.24558 .77781 -1.07218 -.67614 2837.321 530.364)"/><rect x="1755" y="284" width="5" height="9" fill="#FDA829" rx="0" transform="matrix(1.0247 .69386 -.26243 .7982 157.896 -556.086)"/><rect x="1522" y="462" width="5" height="13" fill="#F6F5FC" rx="0" transform="matrix(.11922 1.00598 -.98362 .08801 1731.818 -892.103)"/><rect x="307" y="118" width="9" height="26" fill="#FF2828" rx="0" transform="matrix(.93246 .34249 -.35787 .94098 71.923 -115.28)"/><rect x="32" y="831" width="9" height="25" fill="#FDA829" rx="0" transform="matrix(-.71104 .56227 -.72433 -.8336 930.136 1522.286)"/><rect x="30" y="301" width="6" height="9" fill="#FF2828" rx="0" transform="matrix(.3071 .93198 -.94263 .3956 331.837 148.662)"/><rect x="783" y="902" width="7" height="14" fill="#FF4409" rx="0" transform="matrix(.77715 .72474 -.62932 .69988 747.327 -200.626)"/><rect x="1512" y="576" width="8" height="9" fill="#F6F5FC" rx="0" transform="matrix(-.10996 .9707 -.99864 -.27835 2374.752 -942.574)"/><rect x="830" y="115" width="8" height="10" fill="#FF4409" rx="0" transform="matrix(-.99903 -.0716 -.31859 -1.0238 1754.922 495.108)"/><rect x="698" y="458" width="8" height="8" fill="#FF4409" rx="0" transform="matrix(.83057 .81213 -.5824 .6345 421.396 -226.233)"/><rect x="582" y="291" width="6" height="8" fill="#FF4409" rx="0" transform="matrix(-.99452 0 -.22799 -1.0055 1277.823 653.11)"/><rect x="103" y="200" width="9" height="23" fill="#FF4409" rx="0" transform="matrix(.0822 .94893 -1.08374 -.34538 397.155 197.647)"/><rect x="670" y="338" width="9" height="26" fill="#F6F5FC" rx="0" transform="matrix(-.89295 .29457 -.47411 -.96349 1473.541 573.316)"/><rect x="1852" y="464" width="5" height="5" fill="#F6F5FC" rx="0" transform="matrix(.91957 .7756 -.51773 .6508 552.273 -981.712)"/><rect x="857" y="773" width="9" height="12" fill="#F6F5FC" rx="0" transform="matrix(1.1243 .52285 .03472 .9056 164.77 -113.504)"/><rect x="1809" y="488" width="9" height="24" fill="#FF2828" rx="0" transform="matrix(1.05942 .34044 .13944 .98872 8.449 -57.313)"/><rect x="602" y="158" width="9" height="14" fill="#FF2828" rx="0" transform="matrix(.71971 .65646 -.69539 .75517 268.445 -336.566)"/><rect x="252" y="476" width="5" height="9" fill="#F6F5FC" rx="0" transform="matrix(-.49993 .86616 -.8659 -.50008 789.328 504.792)"/><rect x="1656" y="515" width="9" height="22" fill="#F6F5FC" rx="0" transform="matrix(-.28213 1.01185 -.99814 .03533 2612.345 -1435.758)"/><rect x="1076" y="748" width="8" height="16" fill="#F6F5FC" rx="0" transform="matrix(-.93781 .73044 -.4634 -.70537 2343.45 309.958)"/><rect x="1392" y="519" width="9" height="11" fill="#FDA829" rx="0" transform="matrix(.49097 .7885 -.88466 .61604 1116.45 -948.506)"/><rect x="1693" y="237" width="8" height="15" fill="#FF4409" rx="0" transform="matrix(.08713 .99467 -.9962 .10454 1783.13 -1439.4)"/><rect x="1410" y="694" width="6" height="14" fill="#FF4409" rx="0" transform="matrix(-.99756 .01748 -.06976 -1.00122 2871.457 1452.213)"/><rect x="1653" y="897" width="5" height="6" fill="#F6F5FC" rx="0" transform="matrix(-.88278 .29277 -.52816 -.95762 3784.1 1363.93)"/><rect x="1412" y="944" width="7" height="18" fill="#FF2828" rx="0" transform="matrix(-.89887 .46976 -.43822 -.88349 3035.384 1179.45)"/><rect x="37" y="276" width="5" height="6" fill="#FDA829" rx="0" transform="matrix(-.03455 1.00382 -.9962 0 333.244 235.893)"/><rect x="705" y="528" width="9" height="17" fill="#FF4409" rx="0" transform="matrix(-.62512 .51764 -.84911 -.89658 1723.655 840.358)"/><rect x="418" y="422" width="6" height="15" fill="#FF4409" rx="0" transform="matrix(.12206 .98054 -.9939 .20842 789.513 -102.261)"/><rect x="163" y="700" width="6" height="12" fill="#FDA829" rx="0" transform="matrix(-1.07305 -.23653 -.42004 -1.02451 887.593 1522.507)"/><rect x="1034" y="648" width="9" height="17" fill="#FF2828" rx="0" transform="matrix(-.53612 .92065 -.85862 -.3908 2069.234 -61.163)"/><rect x="1394" y="547" width="6" height="9" fill="#F6F5FC" rx="0" transform="matrix(.08781 .9994 -1.00368 -.0349 1895.572 -825.402)"/><rect x="1137" y="580" width="7" height="19" fill="#FF2828" rx="0" transform="matrix(-.47334 .71945 -.93285 -.69476 2415.335 158.624)"/><rect x="1926" y="171" width="6" height="16" fill="#FDA829" rx="0" transform="matrix(.34131 .95338 -.938 .30977 1427.547 -1580.628)"/><rect x="446" y="105" width="7" height="16" fill="#FF4409" rx="0" transform="matrix(-.81167 .52146 -.56686 -.86785 862.284 47.866)"/><rect x="1963" y="488" width="7" height="16" fill="#FDA829" rx="0" transform="matrix(.14073 1.01496 -1.01008 -.17896 2259.724 -920.842)"/><rect x="1926" y="493" width="6" height="6" fill="#FF4409" rx="0" transform="matrix(.95144 .29525 -.275 .9657 135.894 -281.413)"/><rect x="93" y="116" width="8" height="15" fill="#FF2828" rx="0" transform="matrix(-.95939 .03568 -.5543 -1.02172 302.577 266.84)"/><rect x="1313" y="188" width="5" height="12" fill="#FF2828" rx="0" transform="matrix(.63288 .86044 -.78192 .517 650.84 -923.119)"/><rect x="485" y="929" width="5" height="8" fill="#FDA829" rx="0" transform="matrix(-.37514 .9461 -.9278 -.32577 1452.908 792.743)"/><rect x="1243" y="715" width="7" height="11" fill="#FF4409" rx="0" transform="matrix(.92764 .5592 -.41301 .82904 514.817 -573.856)"/><rect x="1487" y="71" width="9" height="26" fill="#FF2828" rx="0" transform="matrix(-.76151 .51764 -.61287 -.89658 2627.944 -213.099)"/><rect x="865" y="898" width="8" height="20" fill="#FF2828" rx="0" transform="matrix(-.81276 .57921 -.56574 -.8272 1944.205 1277.893)"/><rect x="1714" y="525" width="9" height="23" fill="#FDA829" rx="0" transform="matrix(-.75178 .40858 -.6764 -.96256 3410.4 876.162)"/><rect x="1619" y="635" width="9" height="10" fill="#FF2828" rx="0" transform="matrix(-.82288 .42288 -.6001 -.90686 3478.168 477.158)"/><rect x="1694" y="856" width="6" height="17" fill="#FF4409" rx="0" transform="matrix(.54105 .9974 -.91692 .15797 1846.522 -726.148)"/><rect x="1776" y="539" width="8" height="14" fill="#FF2828" rx="0" transform="matrix(-.8054 .48845 -.59431 -.88119 3619.746 -60.87)"/><rect x="514" y="846" width="6" height="14" fill="#FF2828" rx="0" transform="matrix(-.50127 .90223 -.86388 -.44005 1370.782 807.14)"/><rect x="1249" y="505" width="7" height="16" fill="#FF4409" rx="0" transform="matrix(.52881 .811 -.84885 .58922 941.221 -717.455)"/><rect x="200" y="69" width="9" height="9" fill="#FF2828" rx="0" transform="matrix(-.1051 .99405 -1.02076 .1397 292.212 -157.943)"/><rect x="61" y="78" width="6" height="7" fill="#F6F5FC" rx="0" transform="matrix(.37096 1.03887 -.98202 -.05445 134.327 37.801)"/><rect x="1044" y="924" width="6" height="15" fill="#F6F5FC" rx="0" transform="matrix(.89058 .50122 -.4526 .86814 641.543 -475.164)"/><rect x="916" y="437" width="6" height="9" fill="#F6F5FC" rx="0" transform="matrix(-.37388 .67587 -1.034 -.80547 1889.977 474.593)"/><rect x="258" y="800" width="5" height="10" fill="#FF2828" rx="0" transform="matrix(-.71406 .79864 -.71406 -.60182 908.191 1081.417)"/><rect x="71" y="372" width="6" height="13" fill="#FDA829" rx="0" transform="matrix(.31769 1.0181 -.99332 -.03555 488.69 331.002)"/><rect x="1528" y="797" width="6" height="6" fill="#FF2828" rx="0" transform="matrix(-.72473 .6111 -.67465 -.81096 3105.46 783.129)"/><rect x="1757" y="897" width="9" height="22" fill="#F6F5FC" rx="0" transform="matrix(-.42148 .89441 -.9033 -.45572 3268.472 -99.594)"/><rect x="1204" y="746" width="5" height="14" fill="#FF2828" rx="0" transform="matrix(1.01706 .14022 .10505 .9977 10.955 -19.305)"/><rect x="1255" y="945" width="9" height="19" fill="#FF2828" rx="0" transform="matrix(.87058 .80059 -.59306 .60328 1008.443 -541.6)"/><rect x="813" y="109" width="8" height="8" fill="#F6F5FC" rx="0" transform="matrix(.01414 1.01247 -.98769 0 882.988 -584.784)"/><rect x="1713" y="869" width="8" height="11" fill="#FF2828" rx="0" transform="matrix(.98174 .12189 -.20859 .9927 154.7 -232.866)"/><rect x="1619" y="820" width="6" height="14" fill="#F6F5FC" rx="0" transform="matrix(-.73981 .5339 -.68907 -.85442 3463.59 866.775)"/><rect x="1004" y="175" width="6" height="11" fill="#FF2828" rx="0" transform="matrix(-.9896 .03498 -.24533 -1.00183 2083.078 396.517)"/><rect x="1571" y="142" width="5" height="5" fill="#FDA829" rx="0" transform="matrix(.73135 .86435 -.682 .56131 521.264 -904.34)"/><rect x="430" y="380" width="7" height="18" fill="#FF2828" rx="0" transform="matrix(.69882 .99384 -.75185 .36173 460.673 -33.275)"/><rect x="855" y="433" width="7" height="14" fill="#FF4409" rx="0" transform="matrix(-.99422 -.09114 -.3916 -1.04171 2008.202 1239.065)"/><rect x="1708" y="728" width="9" height="20" fill="#FF4409" rx="0" transform="matrix(.30041 .99497 -.96817 .12217 2066.705 -1175.795)"/><rect x="1677" y="864" width="7" height="11" fill="#FDA829" rx="0" transform="matrix(.24169 .96725 -.9691 .25917 2144.26 -1069.39)"/><rect x="232" y="948" width="8" height="13" fill="#FF2828" rx="0" transform="matrix(-.90023 .6527 -.45923 -.77786 838.951 1501.318)"/><rect x="1796" y="355" width="5" height="10" fill="#F6F5FC" rx="0" transform="matrix(-.9075 .23402 -.34235 -1.01364 3430.828 819.742)"/><rect x="817" y="194" width="8" height="15" fill="#FF2828" rx="0" transform="matrix(.75843 .55996 -.66142 .83018 288.488 -382.481)"/><rect x="1650" y="401" width="6" height="8" fill="#FDA829" rx="0" transform="matrix(1.05986 .26205 .1393 .97797 10.892 -162.428)"/><rect x="1534" y="80" width="5" height="8" fill="#F6F5FC" rx="0" transform="matrix(.19266 1.00382 -.9962 0 1347.114 -1323.943)"/><rect x="1980" y="552" width="5" height="9" fill="#FF4409" rx="0" transform="matrix(.5249 .95469 -.8769 .3102 1532.465 -1335.35)"/><rect x="646" y="211" width="8" height="10" fill="#F6F5FC" rx="0" transform="matrix(.63756 .5922 -.8111 .8151 389.213 -424.8)"/><rect x="796" y="740" width="8" height="16" fill="#FF4409" rx="0" transform="matrix(.83145 .37604 -.6014 .93073 477.305 -319.004)"/><rect x="1168" y="78" width="7" height="7" fill="#F6F5FC" rx="0" transform="matrix(.3432 .96607 -.94316 .25886 853.447 -1050.903)"/><rect x="1917" y="282" width="9" height="17" fill="#F6F5FC" rx="0" transform="matrix(-.00021 1.00554 -.99446 -.14132 2188.826 -1261.788)"/><rect x="1366" y="357" width="7" height="17" fill="#FF4409" rx="0" transform="matrix(.82925 .8768 -.58116 .59141 475.482 -579.893)"/><rect x="325" y="594" width="9" height="25" fill="#FDA829" rx="0" transform="matrix(.92591 .98737 -.65736 .37902 629.547 164.742)"/><rect x="946" y="312" width="8" height="13" fill="#FF2828" rx="0" transform="matrix(.96779 .42495 -.2778 .9113 141.007 -275.599)"/><rect x="894" y="504" width="5" height="12" fill="#F6F5FC" rx="0" transform="matrix(-.94957 .09067 -.17563 -1.03634 1702.106 1214.317)"/><rect x="635" y="919" width="7" height="8" fill="#FF4409" rx="0" transform="matrix(-.95556 .03597 -.43877 -1.02999 1825.017 2009.907)"/><rect x="62" y="714" width="8" height="22" fill="#FDA829" rx="0" transform="matrix(.85826 .85442 -.63409 .5339 665.503 289.636)"/><rect x="733" y="803" width="8" height="8" fill="#FF2828" rx="0" transform="matrix(-.91453 .60218 -.447 -.79912 1648.003 982.347)"/><rect x="1455" y="335" width="9" height="12" fill="#FF4409" rx="0" transform="matrix(.4217 .86814 -.90842 .50122 1083.638 -994.909)"/><rect x="792" y="128" width="9" height="19" fill="#FF2828" rx="0" transform="matrix(.01183 .95419 -1.05232 -.3473 985.8 -434.314)"/><rect x="374" y="585" width="9" height="11" fill="#FDA829" rx="0" transform="matrix(-.1391 .97496 -.99356 -.22509 1088.733 341.173)"/><rect x="1635" y="501" width="6" height="8" fill="#F6F5FC" rx="0" transform="matrix(-.84537 .21428 -.68972 -1.0081 3598.757 1071.5)"/><rect x="1155" y="934" width="7" height="11" fill="#FF4409" rx="0" transform="matrix(-.75642 .76038 -.6576 -.66099 2638.702 537.353)"/><rect x="1375" y="763" width="7" height="15" fill="#FF2828" rx="0" transform="matrix(-.88587 .1472 -.49056 -1.04733 3021.128 1849.217)"/><rect x="1869" y="637" width="6" height="11" fill="#FF2828" rx="0" transform="matrix(.52455 .97452 -.90505 .22499 1669.674 -1359.028)"/><rect x="886" y="153" width="9" height="22" fill="#FF2828" rx="0" transform="matrix(-.95543 .51574 -.34884 -.85834 1782.031 -201.172)"/><rect x="214" y="547" width="7" height="19" fill="#FF2828" rx="0" transform="matrix(1.0274 .19107 .0519 .98297 75.546 -20.684)"/><rect x="1643" y="555" width="7" height="19" fill="#FF4409" rx="0" transform="matrix(.77196 .7318 -.64663 .68241 820.782 -1083.128)"/><rect x="536" y="804" width="6" height="13" fill="#F6F5FC" rx="0" transform="matrix(.44409 1.01463 -.87486 .25298 940.51 223.366)"/><rect x="929" y="883" width="9" height="25" fill="#FF4409" rx="0" transform="matrix(-.13371 1.00986 -.97618 -.10614 2035.208 -116.76)"/><rect x="1556" y="157" width="8" height="16" fill="#FF4409" rx="0" transform="matrix(.24092 1.02568 -.96655 .03582 1334.486 -1080.815)"/><rect x="1000" y="515" width="9" height="21" fill="#FF2828" rx="0" transform="matrix(-.94128 .24285 -.34257 -.974 2140.742 881.282)"/><rect x="393" y="381" width="7" height="18" fill="#FF2828" rx="0" transform="matrix(-.96186 .29525 -.24092 -.9657 901.082 593.835)"/><rect x="398" y="976" width="9" height="9" fill="#F6F5FC" rx="0" transform="matrix(-.89029 .32963 -.44815 -.9573 1463.127 1722.713)"/><rect x="212" y="980" width="7" height="19" fill="#FF2828" rx="0" transform="matrix(.0713 .9707 -1.00973 .27835 1132.191 474.602)"/><rect x="1720" y="900" width="9" height="14" fill="#FDA829" rx="0" transform="matrix(-.1746 .96126 -.99023 -.27564 3019.076 -500.693)"/><rect x="188" y="184" width="8" height="8" fill="#FF4409" rx="0" transform="matrix(1.08655 .66618 -.25116 .76635 106.991 -50.126)"/><rect x="989" y="555" width="7" height="18" fill="#FF2828" rx="0" transform="matrix(.5967 .94552 -.85216 .32557 1042.629 -558.048)"/><rect x="1825" y="598" width="6" height="11" fill="#F6F5FC" rx="0" transform="matrix(.4506 .7546 -.91946 .67945 1529.633 -1508.3)"/><rect x="1686" y="572" width="6" height="13" fill="#F6F5FC" rx="0" transform="matrix(.57486 .85834 -.81962 .51574 1252.37 -1258.118)"/><rect x="1005" y="687" width="5" height="11" fill="#FF2828" rx="0" transform="matrix(-.0347 1.00367 -.99695 .01752 1753.962 -418.971)"/><rect x="1079" y="461" width="6" height="6" fill="#FF4409" rx="0" transform="matrix(.1218 .99324 -.98092 .21112 1429.266 -899.428)"/><rect x="550" y="759" width="9" height="13" fill="#FF4409" rx="0" transform="matrix(1.00486 .27835 -.0883 .9707 109.104 -53.99)"/><rect x="10" y="425" width="6" height="11" fill="#F6F5FC" rx="0" transform="matrix(-.3103 .82115 -1.00053 -.57498 555.322 668.262)"/><rect x="1597" y="605" width="5" height="6" fill="#FF4409" rx="0" transform="matrix(-.87586 .32801 -.50498 -.95262 3363.713 858.93)"/><rect x="1037" y="140" width="9" height="13" fill="#FF2828" rx="0" transform="matrix(.70873 .81964 -.68598 .61765 376.796 -557.194)"/><rect x="253" y="742" width="7" height="20" fill="#FDA829" rx="0" transform="matrix(-.39694 .97874 -.93735 -.20804 945.513 648.44)"/><rect x="326" y="167" width="5" height="13" fill="#F6F5FC" rx="0" transform="matrix(-.69372 .43017 -.76653 -.96618 714.454 312.933)"/><rect x="458" y="327" width="7" height="15" fill="#FF2828" rx="0" transform="matrix(-.93903 .31134 -.3219 -.9582 961.428 568)"/><rect x="1275" y="697" width="7" height="7" fill="#FF2828" rx="0" transform="matrix(-.98537 .05234 -.30252 -.99878 2931.925 1310.909)"/><rect x="1129" y="34" width="8" height="8" fill="#FDA829" rx="0" transform="matrix(-.08986 .87939 -1.08528 -.50771 1344.234 -739.272)"/><rect x="1235" y="762" width="7" height="15" fill="#F6F5FC" rx="0" transform="matrix(.99458 .0351 -.01579 1.0049 97.365 -177.4)"/><rect x="641" y="211" width="9" height="17" fill="#FF2828" rx="0" transform="matrix(.69382 .92244 -.74569 .4499 387.085 -325.66)"/><rect x="289" y="663" width="5" height="9" fill="#F6F5FC" rx="0" transform="matrix(-.946 .09023 -.2699 -1.03134 695.281 1407.722)"/><rect x="233" y="399" width="6" height="7" fill="#FF2828" rx="0" transform="matrix(.85552 .39222 -.53409 .92402 222.365 -82.63)"/><rect x="1395" y="644" width="9" height="21" fill="#FDA829" rx="0" transform="matrix(1.04553 .30902 -.01825 .95106 148.323 -400.436)"/><rect x="740" y="298" width="8" height="9" fill="#FF4409" rx="0" transform="matrix(-.02027 .96664 -1.02753 -.33284 1118.325 -157.855)"/><rect x="1277" y="183" width="6" height="12" fill="#FF4409" rx="0" transform="matrix(.03498 1.00388 -1.00357 -.21338 1433.364 -760.122)"/><rect x="1635" y="183" width="8" height="15" fill="#FF2828" rx="0" transform="matrix(.56213 .95864 -.87128 .29309 948.496 -1321.934)"/><rect x="1326" y="658" width="8" height="21" fill="#FDA829" rx="0" transform="matrix(.90133 .49085 -.41122 .88552 511.832 -786.957)"/><rect x="1291" y="335" width="7" height="11" fill="#FF2828" rx="0" transform="matrix(.91308 .94472 -.67094 .401 561.124 -720.122)"/><rect x="958" y="988" width="8" height="19" fill="#FF4409" rx="0" transform="matrix(-.91322 .1409 -.5989 -1.00261 2789.475 2014.418)"/><rect x="1276" y="448" width="8" height="19" fill="#FF4409" rx="0" transform="matrix(.99035 .24225 -.15582 .97163 138.507 -364.186)"/></svg>